<svg class="icon" viewBox="0 0 1024 1024" xmlns="http://www.w3.org/2000/svg" width="200" height="200"><defs><style/></defs><path d="M512 981.333c-153.6 0-296.533-74.666-384-200.533-4.267-4.267-2.133-10.667 2.133-14.933 4.267-4.267 10.667-2.134 14.934 2.133C228.267 887.467 366.933 960 512 960c247.467 0 448-200.533 448-448S759.467 64 512 64C313.6 64 142.933 192 83.2 379.733c-2.133 6.4-8.533 8.534-12.8 6.4-4.267-2.133-8.533-6.4-6.4-12.8 61.867-198.4 241.067-330.666 448-330.666 258.133 0 469.333 211.2 469.333 469.333 0 260.267-211.2 469.333-469.333 469.333z"/><path d="M701.867 597.333H53.333c-6.4 0-10.666-4.266-10.666-10.666S46.933 576 53.333 576h620.8L531.2 433.067c-4.267-4.267-4.267-10.667 0-14.934s10.667-4.266 14.933 0l162.134 162.134c2.133 2.133 4.266 8.533 2.133 10.666s-4.267 6.4-8.533 6.4z"/></svg>