<svg class="icon" viewBox="0 0 1024 1024" xmlns="http://www.w3.org/2000/svg" width="200" height="200"><defs><style/></defs><path d="M960 494.933H851.2c-6.4 0-10.667-4.266-10.667-10.666S844.8 473.6 851.2 473.6H960c6.4 0 10.667 4.267 10.667 10.667S966.4 494.933 960 494.933zm-761.6 0H85.333c-6.4 0-10.666-4.266-10.666-10.666S78.933 473.6 85.333 473.6H198.4c6.4 0 10.667 4.267 10.667 10.667s-4.267 10.666-10.667 10.666zm526.933-202.666c-2.133 0-6.4 0-8.533-2.134-4.267-4.266-4.267-10.666 0-14.933l68.267-68.267c4.266-4.266 10.666-4.266 14.933 0s4.267 10.667 0 14.934l-68.267 68.266c0 2.134-4.266 2.134-6.4 2.134zm-202.666-70.4c-6.4 0-10.667-4.267-10.667-10.667V102.4c0-6.4 4.267-10.667 10.667-10.667S533.333 96 533.333 102.4v108.8c0 6.4-4.266 10.667-10.666 10.667zM320 292.267c-2.133 0-6.4 0-8.533-2.134L243.2 221.867c-4.267-4.267-4.267-10.667 0-14.934s10.667-4.266 14.933 0L326.4 275.2c4.267 4.267 4.267 10.667 0 14.933-2.133 2.134-4.267 2.134-6.4 2.134z"/><path d="M742.4 932.267c-6.4 0-10.667-4.267-10.667-10.667V539.733c0-115.2-93.866-209.066-209.066-209.066S313.6 424.533 313.6 539.733V921.6c0 6.4-4.267 10.667-10.667 10.667S292.267 928 292.267 921.6V539.733c0-125.866 102.4-230.4 230.4-230.4s230.4 102.4 230.4 230.4V921.6c-2.134 6.4-6.4 10.667-10.667 10.667z"/><path d="M904.533 932.267H140.8c-6.4 0-10.667-4.267-10.667-10.667s4.267-10.667 10.667-10.667h765.867c6.4 0 10.666 4.267 10.666 10.667s-6.4 10.667-12.8 10.667z"/></svg>