<svg class="icon" viewBox="0 0 1024 1024" xmlns="http://www.w3.org/2000/svg" width="200" height="200"><defs><style/></defs><path d="M428.8 494.933H138.667c-17.067 0-32-14.933-32-32V172.8c0-17.067 14.933-32 32-32H428.8c17.067 0 32 14.933 32 32v290.133c0 17.067-14.933 32-32 32zm-290.133-332.8c-6.4 0-10.667 4.267-10.667 10.667v290.133c0 6.4 4.267 10.667 10.667 10.667H428.8c6.4 0 10.667-4.267 10.667-10.667V172.8c0-6.4-4.267-10.667-10.667-10.667H138.667z"/><path d="M755.2 494.933c-2.133 0-6.4 0-8.533-2.133L552.533 298.667c-2.133-2.134-2.133-4.267-2.133-8.534s2.133-6.4 2.133-8.533L746.667 87.467c4.266-4.267 10.666-4.267 14.933 0L955.733 281.6c4.267 4.267 4.267 10.667 0 14.933L761.6 490.667c0 4.266-4.267 4.266-6.4 4.266zM576 290.133l179.2 179.2 179.2-179.2-179.2-179.2-179.2 179.2z"/><path d="M428.8 938.667H138.667c-17.067 0-32-14.934-32-32V616.533c0-17.066 14.933-32 32-32H428.8c17.067 0 32 14.934 32 32v290.134c0 17.066-14.933 32-32 32zm-290.133-332.8c-6.4 0-10.667 4.266-10.667 10.666v290.134c0 6.4 4.267 10.666 10.667 10.666H428.8c6.4 0 10.667-4.266 10.667-10.666V616.533c0-6.4-4.267-10.666-10.667-10.666H138.667zm733.866 332.8H582.4c-17.067 0-32-14.934-32-32V616.533c0-17.066 14.933-32 32-32h290.133c17.067 0 32 14.934 32 32v290.134c0 17.066-14.933 32-32 32zM582.4 605.867c-6.4 0-10.667 4.266-10.667 10.666v290.134c0 6.4 4.267 10.666 10.667 10.666h290.133c6.4 0 10.667-4.266 10.667-10.666V616.533c0-6.4-4.267-10.666-10.667-10.666H582.4z"/></svg>