<svg class="icon" viewBox="0 0 1024 1024" xmlns="http://www.w3.org/2000/svg" width="200" height="200"><defs><style/></defs><path d="M215.467 712.533c-2.134 0-4.267 0-6.4-2.133-4.267-2.133-6.4-8.533-4.267-14.933l238.933-396.8c2.134-4.267 8.534-6.4 14.934-4.267 4.266 2.133 6.4 8.533 4.266 14.933L224 706.133c-2.133 4.267-4.267 6.4-8.533 6.4zm593.066 0c-4.266 0-6.4-2.133-8.533-4.266L563.2 309.333c-2.133-4.266-2.133-10.666 4.267-14.933 4.266-2.133 10.666-2.133 14.933 4.267l236.8 396.8c2.133 4.266 2.133 10.666-4.267 14.933-2.133 0-4.266 2.133-6.4 2.133zM755.2 819.2H268.8c-6.4 0-10.667-4.267-10.667-10.667s4.267-10.666 10.667-10.666h486.4c6.4 0 10.667 4.266 10.667 10.666S761.6 819.2 755.2 819.2z"/><path d="M162.133 928C96 928 42.667 874.667 42.667 808.533c0-66.133 53.333-119.466 119.466-119.466 66.134 0 119.467 53.333 119.467 119.466C279.467 874.667 226.133 928 162.133 928zm0-215.467C108.8 712.533 64 755.2 64 810.667 64 864 106.667 908.8 162.133 908.8s98.134-42.667 98.134-98.133c-2.134-55.467-44.8-98.134-98.134-98.134zM861.867 928C795.733 928 742.4 874.667 742.4 808.533c0-66.133 53.333-119.466 119.467-119.466S981.333 742.4 981.333 808.533C981.333 874.667 928 928 861.867 928zm0-215.467c-53.334 0-98.134 42.667-98.134 98.134 0 53.333 42.667 98.133 98.134 98.133S960 866.133 960 810.667c0-55.467-42.667-98.134-98.133-98.134zM512 332.8c-66.133 0-119.467-53.333-119.467-119.467 0-66.133 53.334-119.466 119.467-119.466S631.467 147.2 631.467 213.333c0 66.134-53.334 119.467-119.467 119.467zm0-215.467c-53.333 0-98.133 42.667-98.133 98.134S456.533 313.6 512 313.6s98.133-42.667 98.133-98.133-44.8-98.134-98.133-98.134z"/></svg>