<svg class="icon" viewBox="0 0 1024 1024" xmlns="http://www.w3.org/2000/svg" width="200" height="200"><defs><style/></defs><path d="M266.667 236.8h-57.6c-6.4 0-10.667-4.267-10.667-10.667s4.267-10.666 10.667-10.666h57.6c6.4 0 10.666 4.266 10.666 10.666s-4.266 10.667-10.666 10.667zm0 213.333h-57.6c-6.4 0-10.667-4.266-10.667-10.666s4.267-10.667 10.667-10.667h57.6c6.4 0 10.666 4.267 10.666 10.667s-4.266 10.666-10.666 10.666z"/><path d="M960 341.333H85.333c-6.4 0-10.666-4.266-10.666-10.666v-192c0-17.067 14.933-32 32-32h832c17.066 0 32 14.933 32 32v192c0 6.4-4.267 10.666-10.667 10.666zM96 320h853.333V138.667c0-6.4-4.266-10.667-10.666-10.667h-832c-6.4 0-10.667 4.267-10.667 10.667V320z"/><path d="M960 554.667H85.333c-6.4 0-10.666-4.267-10.666-10.667V330.667c0-6.4 4.266-10.667 10.666-10.667H960c6.4 0 10.667 4.267 10.667 10.667V544c0 6.4-4.267 10.667-10.667 10.667zM96 533.333h853.333v-192H96v192z"/><path d="M266.667 657.067h-57.6c-6.4 0-10.667-4.267-10.667-10.667s4.267-10.667 10.667-10.667h57.6c6.4 0 10.666 4.267 10.666 10.667s-4.266 10.667-10.666 10.667z"/><path d="M938.667 768h-832c-17.067 0-32-14.933-32-32V544c0-6.4 4.266-10.667 10.666-10.667H960c6.4 0 10.667 4.267 10.667 10.667v192c0 17.067-14.934 32-32 32zM96 554.667V736c0 6.4 4.267 10.667 10.667 10.667h832c6.4 0 10.666-4.267 10.666-10.667V554.667H96zm768 362.666H181.333c-6.4 0-10.666-4.266-10.666-10.666S174.933 896 181.333 896H864c6.4 0 10.667 4.267 10.667 10.667S870.4 917.333 864 917.333z"/><path d="M460.8 906.667c-6.4 0-10.667-4.267-10.667-10.667V768c0-6.4 4.267-10.667 10.667-10.667S471.467 761.6 471.467 768v128c0 6.4-4.267 10.667-10.667 10.667zm125.867 0c-6.4 0-10.667-4.267-10.667-10.667V768c0-6.4 4.267-10.667 10.667-10.667S597.333 761.6 597.333 768v128c0 6.4-4.266 10.667-10.666 10.667z"/></svg>