<svg class="icon" viewBox="0 0 1024 1024" xmlns="http://www.w3.org/2000/svg" width="64" height="64"><defs><style/></defs><path d="M755.2 958.976H268.8c-9.216 0-17.408-5.12-22.016-12.8L3.584 524.8c-4.608-7.68-4.608-17.92 0-25.6l243.2-421.376c4.608-7.68 12.8-12.8 22.016-12.8h486.4c9.216 0 17.408 5.12 22.016 12.8l243.2 421.376c4.608 7.68 4.608 17.92 0 25.6l-243.2 421.376c-4.608 7.68-12.8 12.8-22.016 12.8zm-471.552-51.2h456.704L968.704 512 740.352 116.224H283.648L55.296 512l228.352 395.776z"/><path d="M419.84 371.2c-35.328 0-64-28.672-64-64s28.672-64 64-64 64 28.672 64 64-28.672 64-64 64zm0-102.4c-20.992 0-38.4 17.408-38.4 38.4s17.408 38.4 38.4 38.4 38.4-17.408 38.4-38.4-17.408-38.4-38.4-38.4zM819.2 576c-35.328 0-64-28.672-64-64s28.672-64 64-64 64 28.672 64 64-28.672 64-64 64zm0-102.4c-20.992 0-38.4 17.408-38.4 38.4s17.408 38.4 38.4 38.4 38.4-17.408 38.4-38.4-17.408-38.4-38.4-38.4zM204.8 576c-35.328 0-64-28.672-64-64s28.672-64 64-64 64 28.672 64 64-28.672 64-64 64zm0-102.4c-20.992 0-38.4 17.408-38.4 38.4s17.408 38.4 38.4 38.4 38.4-17.408 38.4-38.4-17.408-38.4-38.4-38.4zM512 576c-35.328 0-64-28.672-64-64s28.672-64 64-64 64 28.672 64 64-28.672 64-64 64zm0-102.4c-20.992 0-38.4 17.408-38.4 38.4s17.408 38.4 38.4 38.4 38.4-17.408 38.4-38.4-17.408-38.4-38.4-38.4zm256 256c-35.328 0-64-28.672-64-64s28.672-64 64-64 64 28.672 64 64-28.672 64-64 64zm0-102.4c-20.992 0-38.4 17.408-38.4 38.4S747.008 704 768 704s38.4-17.408 38.4-38.4-17.408-38.4-38.4-38.4zM368.64 832c-35.328 0-64-28.672-64-64s28.672-64 64-64 64 28.672 64 64-28.672 64-64 64zm0-102.4c-20.992 0-38.4 17.408-38.4 38.4s17.408 38.4 38.4 38.4 38.4-17.408 38.4-38.4-17.408-38.4-38.4-38.4z"/><path d="M768 524.8h-79.872c-4.608 0-9.216-2.56-11.264-6.656L568.32 320h-97.28v-25.6H576c4.608 0 9.216 2.56 11.264 6.656L695.808 499.2H768v25.6zm-215.04 256H419.84v-25.6h127.488l87.552-98.304c2.56-2.56 6.144-4.096 9.728-4.096H716.8v25.6h-67.072l-87.552 98.304c-2.048 2.56-5.632 4.096-9.216 4.096zM256 499.2h204.8v25.6H256z"/></svg>