<svg class="icon" viewBox="0 0 1024 1024" xmlns="http://www.w3.org/2000/svg" width="200" height="200"><defs><style/></defs><path d="M509.867 768c-64 0-117.334-53.333-117.334-117.333s53.334-117.334 117.334-117.334S627.2 586.667 627.2 650.667 573.867 768 509.867 768zm0-213.333c-53.334 0-96 42.666-96 96s42.666 96 96 96 96-42.667 96-96-42.667-96-96-96z"/><path d="M906.667 938.667H117.333c-17.066 0-32-14.934-32-32V117.333c0-17.066 14.934-32 32-32h789.334c17.066 0 32 14.934 32 32v789.334c0 17.066-14.934 32-32 32zm-789.334-832c-6.4 0-10.666 4.266-10.666 10.666v789.334c0 6.4 4.266 10.666 10.666 10.666h789.334c6.4 0 10.666-4.266 10.666-10.666V117.333c0-6.4-4.266-10.666-10.666-10.666H117.333z"/><path d="M928 563.2c-2.133 0-6.4-2.133-8.533-4.267-83.2-106.666-238.934-172.8-407.467-172.8s-324.267 66.134-407.467 172.8c-4.266 4.267-10.666 6.4-14.933 2.134-4.267-4.267-6.4-10.667-2.133-14.934C174.933 435.2 337.067 364.8 512 364.8s337.067 70.4 424.533 181.333c4.267 4.267 2.134 10.667-2.133 14.934-2.133 2.133-4.267 2.133-6.4 2.133z"/></svg>