<svg class="icon" viewBox="0 0 1024 1024" xmlns="http://www.w3.org/2000/svg" width="200" height="200"><defs><style/></defs><path d="M949.333 832H74.667c-17.067 0-32-14.933-32-32V501.333c0-6.4 4.266-10.666 10.666-10.666h917.334c6.4 0 10.666 4.266 10.666 10.666V800c0 17.067-14.933 32-32 32zM64 512v288c0 6.4 4.267 10.667 10.667 10.667h874.666c6.4 0 10.667-4.267 10.667-10.667V512H64z"/><path d="M224 661.333h-64c-6.4 0-10.667-4.266-10.667-10.666S153.6 640 160 640h64c6.4 0 10.667 4.267 10.667 10.667S230.4 661.333 224 661.333zm0-298.666h-64c-6.4 0-10.667-4.267-10.667-10.667S153.6 341.333 160 341.333h64c6.4 0 10.667 4.267 10.667 10.667S230.4 362.667 224 362.667zm128 298.666h-64c-6.4 0-10.667-4.266-10.667-10.666S281.6 640 288 640h64c6.4 0 10.667 4.267 10.667 10.667S358.4 661.333 352 661.333zm0-298.666h-64c-6.4 0-10.667-4.267-10.667-10.667S281.6 341.333 288 341.333h64c6.4 0 10.667 4.267 10.667 10.667S358.4 362.667 352 362.667z"/><path d="M970.667 512H53.333c-6.4 0-10.666-4.267-10.666-10.667V202.667c0-17.067 14.933-32 32-32h874.666c17.067 0 32 14.933 32 32v298.666c0 6.4-4.266 10.667-10.666 10.667zM64 490.667h896v-288c0-6.4-4.267-10.667-10.667-10.667H74.667C68.267 192 64 196.267 64 202.667v288z"/></svg>