<svg class="icon" viewBox="0 0 1024 1024" xmlns="http://www.w3.org/2000/svg" width="64" height="64"><defs><style/></defs><path d="M772.454 863.13H199.04C92.826 863.13 6.4 776.73 6.4 670.515s86.426-192.64 192.64-192.64c13.517 0 26.982 1.434 40.14 4.25a268.416 268.416 0 0 1-.537-16.64c0-167.962 136.653-304.589 304.589-304.589 118.298 0 226.765 69.555 276.378 177.203a12.8 12.8 0 1 1-23.245 10.701 279.578 279.578 0 0 0-253.133-162.304c-153.856 0-278.989 125.158-278.989 278.989 0 9.805.64 20.352 1.997 32.256l2.202 19.61-18.79-5.965a166.963 166.963 0 0 0-50.638-7.885c-92.108 0-167.04 74.957-167.04 167.04s74.957 167.014 167.04 167.014h573.39c121.062 0 219.545-98.483 219.545-219.52a218.752 218.752 0 0 0-79.488-168.934 12.749 12.749 0 0 1-1.69-17.997 12.749 12.749 0 0 1 17.997-1.69 244.07 244.07 0 0 1 88.806 188.621c.026 135.117-109.952 245.095-245.12 245.095z"/><path d="M824.755 453.12c-33.766 0-61.26-27.469-61.26-61.26s27.468-61.262 61.26-61.262 61.261 27.47 61.261 61.261-27.494 61.261-61.26 61.261zm0-96.922c-19.66 0-35.66 16-35.66 35.661s16 35.661 35.66 35.661 35.661-16 35.661-35.66a35.738 35.738 0 0 0-35.66-35.662zM342.758 440.32V512h343.476v-71.68H342.758zm159.796 46.285H371.149V465.69h131.405v20.915zm-159.796 165.76v71.68h343.476v-71.68H342.758zm159.796 46.31H371.149V677.76h131.405v20.915zm-159.796-152.32v71.68h343.476v-71.68H342.758zm183.68 25.37h131.405v20.915H526.438v-20.915z"/></svg>