<svg class="icon" viewBox="0 0 1024 1024" xmlns="http://www.w3.org/2000/svg" width="200" height="200"><defs><style/></defs><path d="M322.133 759.467H204.8c-89.6 0-162.133-74.667-162.133-164.267 0-70.4 44.8-132.267 108.8-155.733 0-8.534-2.134-19.2-2.134-27.734 0-74.666 59.734-136.533 134.4-136.533 32 0 61.867 10.667 85.334 32C403.2 219.733 484.267 164.267 576 164.267c91.733 0 172.8 55.466 206.933 142.933 2.134 6.4 0 10.667-6.4 12.8-6.4 2.133-10.666 0-12.8-6.4C733.867 234.667 659.2 183.467 576 183.467c-87.467 0-164.267 57.6-192 145.066-2.133 4.267-4.267 6.4-8.533 6.4s-8.534 0-10.667-2.133c-21.333-23.467-51.2-36.267-81.067-36.267-61.866 0-113.066 51.2-113.066 115.2 0 10.667 2.133 19.2 4.266 32v8.534c-2.133 2.133-4.266 4.266-6.4 4.266C106.667 473.6 64 531.2 64 595.2c0 78.933 64 142.933 140.8 142.933h117.333c6.4 0 10.667 4.267 10.667 10.667s-4.267 10.667-10.667 10.667z"/><path d="M593.067 759.467h-53.334c-6.4 0-10.666-4.267-10.666-10.667s4.266-10.667 10.666-10.667h53.334c6.4 0 10.666 4.267 10.666 10.667s-4.266 10.667-10.666 10.667z"/><path d="M949.333 868.267H452.267c-17.067 0-32-14.934-32-32V642.133c0-6.4 4.266-10.666 10.666-10.666h539.734c6.4 0 10.666 4.266 10.666 10.666v194.134c0 17.066-14.933 32-32 32zM441.6 652.8v183.467c0 6.4 4.267 10.666 10.667 10.666h497.066c6.4 0 10.667-4.266 10.667-10.666V652.8H441.6z"/><path d="M593.067 544h-53.334c-6.4 0-10.666-4.267-10.666-10.667s4.266-10.666 10.666-10.666h53.334c6.4 0 10.666 4.266 10.666 10.666S599.467 544 593.067 544z"/><path d="M970.667 652.8H430.933c-6.4 0-10.666-4.267-10.666-10.667V448c0-17.067 14.933-32 32-32h497.066c17.067 0 32 14.933 32 32v194.133c0 6.4-4.266 10.667-10.666 10.667zM441.6 631.467H960V448c0-6.4-4.267-10.667-10.667-10.667H452.267c-6.4 0-10.667 4.267-10.667 10.667v183.467z"/></svg>