<svg class="icon" viewBox="0 0 1024 1024" xmlns="http://www.w3.org/2000/svg" width="200" height="200"><defs><style/></defs><path d="M706.133 938.667h-345.6c-17.066 0-32-14.934-32-32V117.333c0-17.066 14.934-32 32-32h345.6c17.067 0 32 14.934 32 32v789.334c0 17.066-14.933 32-32 32zm-345.6-832c-6.4 0-10.666 4.266-10.666 10.666v789.334c0 6.4 4.266 10.666 10.666 10.666h345.6c6.4 0 10.667-4.266 10.667-10.666V117.333c0-6.4-4.267-10.666-10.667-10.666h-345.6zm567.467 832h-91.733c-6.4 0-10.667-4.267-10.667-10.667s4.267-10.667 10.667-10.667H928c6.4 0 10.667-4.266 10.667-10.666V283.733c0-6.4-4.267-10.666-10.667-10.666h-93.867c-6.4 0-10.666-4.267-10.666-10.667s4.266-10.667 10.666-10.667H928c17.067 0 32 14.934 32 32v622.934c0 17.066-14.933 32-32 32zm-697.6 0h-91.733c-17.067 0-32-14.934-32-32V283.733c0-17.066 14.933-32 32-32H230.4c6.4 0 10.667 4.267 10.667 10.667s-4.267 10.667-10.667 10.667h-91.733c-6.4 0-10.667 4.266-10.667 10.666v622.934c0 6.4 4.267 10.666 10.667 10.666H230.4c6.4 0 10.667 4.267 10.667 10.667s-4.267 10.667-10.667 10.667z"/><path d="M616.533 273.067h-166.4c-6.4 0-10.666-4.267-10.666-10.667s4.266-10.667 10.666-10.667h166.4c6.4 0 10.667 4.267 10.667 10.667s-4.267 10.667-10.667 10.667zm0 85.333h-166.4c-6.4 0-10.666-4.267-10.666-10.667s4.266-10.666 10.666-10.666h166.4c6.4 0 10.667 4.266 10.667 10.666s-4.267 10.667-10.667 10.667zm-83.2 413.867c-21.333 0-38.4-17.067-38.4-38.4s17.067-38.4 38.4-38.4 38.4 17.066 38.4 38.4-17.066 38.4-38.4 38.4zm0-55.467c-8.533 0-17.066 8.533-17.066 17.067s8.533 17.066 17.066 17.066S550.4 742.4 550.4 733.867s-8.533-17.067-17.067-17.067z"/></svg>