<svg class="icon" viewBox="0 0 1024 1024" xmlns="http://www.w3.org/2000/svg" width="200" height="200"><defs><style/></defs><path d="M520.533 974.933c-6.4 0-10.666-4.266-10.666-10.666V494.933c0-6.4 4.266-10.666 10.666-10.666s10.667 4.266 10.667 10.666v467.2c0 6.4-4.267 12.8-10.667 12.8z"/><path d="M520.533 505.6c-2.133 0-4.266 0-4.266-2.133L102.4 296.533C98.133 294.4 96 288 98.133 281.6c2.134-4.267 8.534-6.4 12.8-4.267L524.8 486.4c4.267 2.133 6.4 8.533 4.267 14.933 0 2.134-4.267 4.267-8.534 4.267z"/><path d="M520.533 505.6c-4.266 0-8.533-2.133-8.533-6.4-2.133-4.267 0-10.667 4.267-14.933L934.4 277.333c4.267-2.133 10.667 0 14.933 4.267 2.134 4.267 0 10.667-4.266 14.933L526.933 505.6h-6.4z"/><path d="M520.533 974.933c-2.133 0-4.266 0-4.266-2.133L102.4 765.867c-4.267-2.134-6.4-6.4-6.4-8.534V288c0-4.267 2.133-8.533 6.4-10.667L516.267 121.6h8.533l418.133 155.733c4.267 2.134 6.4 6.4 6.4 10.667v467.2c0 4.267-2.133 8.533-6.4 8.533L524.8 972.8s-2.133 2.133-4.267 2.133zM117.333 748.8l403.2 202.667L928 748.8V294.4L520.533 142.933 117.333 294.4v454.4z"/></svg>