<svg class="icon" viewBox="0 0 1024 1024" xmlns="http://www.w3.org/2000/svg" width="200" height="200"><defs><style/></defs><path d="M512 537.6c-6.4 0-10.667-4.267-10.667-10.667V298.667c0-6.4 4.267-10.667 10.667-10.667s10.667 4.267 10.667 10.667v228.266c0 4.267-6.4 10.667-10.667 10.667z"/><path d="M512 309.333c-4.267 0-8.533-2.133-8.533-6.4-2.134-4.266 0-10.666 4.266-14.933L710.4 185.6c4.267-2.133 10.667 0 14.933 4.267 2.134 4.266 0 10.666-4.266 14.933L518.4 307.2c-4.267 2.133-6.4 2.133-6.4 2.133z"/><path d="M746.667 921.6c-6.4 0-10.667-4.267-10.667-10.667V682.667c0-6.4 4.267-10.667 10.667-10.667s10.666 4.267 10.666 10.667v228.266c0 4.267-6.4 10.667-10.666 10.667z"/><path d="M746.667 921.6c-6.4 0-10.667-4.267-10.667-10.667V682.667c0-6.4 4.267-10.667 10.667-10.667s10.666 4.267 10.666 10.667v228.266c0 4.267-6.4 10.667-10.666 10.667zm-469.334 0c-6.4 0-10.666-4.267-10.666-10.667V682.667c0-6.4 4.266-10.667 10.666-10.667S288 676.267 288 682.667v228.266c0 4.267-6.4 10.667-10.667 10.667z"/><path d="M512 309.333c-2.133 0-4.267 0-4.267-2.133L305.067 204.8c-6.4-2.133-8.534-8.533-4.267-12.8 2.133-4.267 8.533-6.4 14.933-4.267l202.667 102.4c4.267 2.134 6.4 8.534 4.267 14.934-4.267 2.133-6.4 4.266-10.667 4.266zm234.667 384c-2.134 0-4.267 0-4.267-2.133L539.733 588.8c-4.266-2.133-6.4-8.533-4.266-14.933 2.133-4.267 8.533-6.4 14.933-4.267L753.067 672c4.266 2.133 6.4 8.533 4.266 14.933-4.266 4.267-6.4 6.4-10.666 6.4z"/><path d="M746.667 693.333c-4.267 0-8.534-2.133-8.534-6.4-2.133-4.266 0-10.666 4.267-14.933l202.667-102.4c4.266-2.133 10.666 0 14.933 4.267 2.133 4.266 0 10.666-4.267 14.933L753.067 691.2c-4.267 2.133-6.4 2.133-6.4 2.133zm-469.334 0c-2.133 0-4.266 0-4.266-2.133L70.4 588.8c-6.4-2.133-8.533-8.533-4.267-12.8 2.134-4.267 8.534-6.4 14.934-4.267l202.666 102.4c4.267 2.134 6.4 8.534 4.267 14.934-4.267 2.133-6.4 4.266-10.667 4.266z"/><path d="M277.333 693.333c-4.266 0-8.533-2.133-8.533-6.4-2.133-4.266 0-10.666 4.267-14.933l202.666-102.4c4.267-2.133 10.667 0 14.934 4.267 2.133 4.266 0 10.666-4.267 14.933L283.733 691.2c-4.266 2.133-6.4 2.133-6.4 2.133z"/><path d="M512 537.6c-2.133 0-4.267 0-4.267-2.133l-202.666-102.4c-4.267-2.134-6.4-6.4-6.4-8.534V196.267c0-4.267 2.133-8.534 6.4-10.667l202.666-76.8h8.534l202.666 76.8c4.267 2.133 6.4 6.4 6.4 10.667v228.266c0 4.267-2.133 8.534-6.4 8.534l-202.666 102.4c-2.134 0-4.267 2.133-4.267 2.133zM320 418.133l192 96 192-96V204.8l-192-72.533L320 204.8v213.333zM277.333 921.6c-2.133 0-4.266 0-4.266-2.133L70.4 817.067c-4.267 0-6.4-4.267-6.4-8.534V580.267c0-4.267 2.133-8.534 6.4-10.667l202.667-76.8h8.533l202.667 76.8c4.266 2.133 6.4 6.4 6.4 10.667v228.266c0 4.267-2.134 8.534-6.4 8.534L281.6 919.467c-2.133 0-4.267 2.133-4.267 2.133zm-192-119.467l192 96 192-96V588.8l-192-72.533-192 72.533v213.333zM746.667 921.6c-2.134 0-4.267 0-4.267-2.133l-202.667-102.4c-4.266-2.134-6.4-6.4-6.4-8.534V580.267c0-4.267 2.134-8.534 6.4-10.667L742.4 492.8h8.533L953.6 569.6c4.267 2.133 6.4 6.4 6.4 10.667v228.266c0 4.267-2.133 8.534-6.4 8.534l-202.667 102.4c-2.133 0-4.266 2.133-4.266 2.133zm-192-119.467l192 96 192-96V588.8l-192-72.533-192 72.533v213.333z"/></svg>