<svg class="icon" viewBox="0 0 1024 1024" xmlns="http://www.w3.org/2000/svg" width="200" height="200"><defs><style/></defs><path d="M648.533 682.667H375.467c-19.2 0-34.134-14.934-34.134-34.134V375.467c0-19.2 14.934-34.134 34.134-34.134h275.2c19.2 0 34.133 14.934 34.133 34.134v275.2c-2.133 17.066-17.067 32-36.267 32zm-273.066-320c-6.4 0-12.8 6.4-12.8 12.8v275.2c0 6.4 6.4 12.8 12.8 12.8h275.2c6.4 0 12.8-6.4 12.8-12.8v-275.2c0-6.4-6.4-12.8-12.8-12.8h-275.2z"/><path d="M710.4 832H313.6C245.333 832 192 778.667 192 710.4V313.6c0-68.267 53.333-121.6 121.6-121.6h396.8c66.133 0 121.6 53.333 121.6 121.6v396.8c0 68.267-53.333 121.6-121.6 121.6zM313.6 213.333c-55.467 0-100.267 44.8-100.267 100.267v396.8c0 55.467 44.8 100.267 100.267 100.267h396.8c55.467 0 100.267-44.8 100.267-100.267V313.6c0-55.467-44.8-100.267-100.267-100.267H313.6z"/><path d="M437.333 198.4c-6.4 0-10.666-4.267-10.666-10.667v-134.4c0-6.4 4.266-10.666 10.666-10.666S448 46.933 448 53.333v134.4c0 6.4-4.267 10.667-10.667 10.667zm149.334 0c-6.4 0-10.667-4.267-10.667-10.667v-134.4c0-6.4 4.267-10.666 10.667-10.666s10.666 4.266 10.666 10.666v134.4c0 6.4-4.266 10.667-10.666 10.667zM437.333 981.333c-6.4 0-10.666-4.266-10.666-10.666v-134.4c0-6.4 4.266-10.667 10.666-10.667S448 829.867 448 836.267v134.4c0 6.4-4.267 10.666-10.667 10.666zm149.334 0c-6.4 0-10.667-4.266-10.667-10.666v-134.4c0-6.4 4.267-10.667 10.667-10.667s10.666 4.267 10.666 10.667v134.4c0 6.4-4.266 10.666-10.666 10.666zM187.733 597.333h-134.4c-6.4 0-10.666-4.266-10.666-10.666S46.933 576 53.333 576h134.4c6.4 0 10.667 4.267 10.667 10.667s-4.267 10.666-10.667 10.666zm0-149.333h-134.4c-6.4 0-10.666-4.267-10.666-10.667s4.266-10.666 10.666-10.666h134.4c6.4 0 10.667 4.266 10.667 10.666S194.133 448 187.733 448zm782.934 149.333h-134.4c-6.4 0-10.667-4.266-10.667-10.666S829.867 576 836.267 576h134.4c6.4 0 10.666 4.267 10.666 10.667s-4.266 10.666-10.666 10.666zm0-149.333h-134.4c-6.4 0-10.667-4.267-10.667-10.667s4.267-10.666 10.667-10.666h134.4c6.4 0 10.666 4.266 10.666 10.666S977.067 448 970.667 448z"/></svg>