<svg class="icon" viewBox="0 0 1024 1024" xmlns="http://www.w3.org/2000/svg" width="200" height="200"><path d="M499.2 492.8c57.6-38.4 96-108.8 96-185.6 0-121.6-102.4-224-224-224s-217.6 102.4-217.6 224c0 76.8 38.4 147.2 96 185.6C102.4 550.4 0 716.8 0 902.4c0 19.2 12.8 32 32 32s32-12.8 32-32c0-204.8 140.8-371.2 313.6-371.2s313.6 166.4 313.6 371.2c0 19.2 12.8 32 32 32s32-12.8 32-32c-6.4-185.6-108.8-352-256-409.6zM217.6 307.2c0-89.6 70.4-160 160-160s160 70.4 160 160-76.8 160-160 160c-89.6 0-160-70.4-160-160zm633.6 230.4c-12.8-12.8-32-6.4-44.8 6.4-12.8 12.8-6.4 32 6.4 44.8 96 70.4 147.2 185.6 147.2 320 0 19.2 12.8 32 32 32s32-12.8 32-32c0-153.6-64-294.4-172.8-371.2zm-204.8-384c89.6 0 160 70.4 160 160 0 64-32 115.2-89.6 140.8-12.8 6.4-19.2 25.6-12.8 38.4 6.4 12.8 19.2 19.2 25.6 19.2 6.4 0 6.4 0 12.8-6.4C819.2 467.2 864 390.4 864 307.2c0-121.6-102.4-224-224-224-19.2 0-32 12.8-32 32s25.6 38.4 38.4 38.4z"/></svg>