<?xml version="1.0" standalone="no"?><!DOCTYPE svg PUBLIC "-//W3C//DTD SVG 1.1//EN" "http://www.w3.org/Graphics/SVG/1.1/DTD/svg11.dtd"><svg t="1594260683760" class="icon" viewBox="0 0 1024 1024" version="1.1" xmlns="http://www.w3.org/2000/svg" p-id="3444" xmlns:xlink="http://www.w3.org/1999/xlink" width="200" height="200"><defs><style type="text/css"></style></defs><path d="M330.666667 661.333333c-6.4 0-10.666667-4.266667-10.666667-10.666666v-277.333334c0-6.4 4.266667-10.666667 10.666667-10.666666s10.666667 4.266667 10.666666 10.666666v277.333334c0 6.4-4.266667 10.666667-10.666666 10.666666zM693.333333 384c-6.4 0-10.666667-4.266667-10.666666-10.666667v-213.333333c0-6.4 4.266667-10.666667 10.666666-10.666667s10.666667 4.266667 10.666667 10.666667v213.333333c0 6.4-4.266667 10.666667-10.666667 10.666667zM693.333333 874.666667c-6.4 0-10.666667-4.266667-10.666666-10.666667v-213.333333c0-6.4 4.266667-10.666667 10.666666-10.666667s10.666667 4.266667 10.666667 10.666667v213.333333c0 6.4-4.266667 10.666667-10.666667 10.666667z" fill="#ED1E79" p-id="3445"></path><path d="M970.666667 384h-917.333334c-6.4 0-10.666667-4.266667-10.666666-10.666667s4.266667-10.666667 10.666666-10.666666h917.333334c6.4 0 10.666667 4.266667 10.666666 10.666666s-4.266667 10.666667-10.666666 10.666667zM970.666667 661.333333h-917.333334c-6.4 0-10.666667-4.266667-10.666666-10.666666s4.266667-10.666667 10.666666-10.666667h917.333334c6.4 0 10.666667 4.266667 10.666666 10.666667s-4.266667 10.666667-10.666666 10.666666z" fill="#108EE9" p-id="3446"></path><path d="M949.333333 874.666667h-874.666666c-17.066667 0-32-14.933333-32-32v-661.333334C42.666667 164.266667 57.6 149.333333 74.666667 149.333333h874.666666c17.066667 0 32 14.933333 32 32v661.333334c0 17.066667-14.933333 32-32 32zM74.666667 170.666667c-6.4 0-10.666667 4.266667-10.666667 10.666666v661.333334c0 6.4 4.266667 10.666667 10.666667 10.666666h874.666666c6.4 0 10.666667-4.266667 10.666667-10.666666v-661.333334c0-6.4-4.266667-10.666667-10.666667-10.666666h-874.666666z" fill="#108EE9" p-id="3447"></path></svg>