<svg class="icon" viewBox="0 0 1024 1024" xmlns="http://www.w3.org/2000/svg" width="200" height="200"><defs><style/></defs><path d="M650.667 938.667H416c-17.067 0-32-14.934-32-32V117.333c0-17.066 14.933-32 32-32h234.667c17.066 0 32 14.934 32 32v789.334c0 17.066-14.934 32-32 32zM416 106.667c-6.4 0-10.667 4.266-10.667 10.666v789.334c0 6.4 4.267 10.666 10.667 10.666h234.667c6.4 0 10.666-4.266 10.666-10.666V117.333c0-6.4-4.266-10.666-10.666-10.666H416zM288 832H138.667c-17.067 0-32-14.933-32-32V245.333c0-17.066 14.933-32 32-32H288c6.4 0 10.667 4.267 10.667 10.667S294.4 234.667 288 234.667H138.667c-6.4 0-10.667 4.266-10.667 10.666V800c0 6.4 4.267 10.667 10.667 10.667H288c6.4 0 10.667 4.266 10.667 10.666S294.4 832 288 832zm640 0H778.667c-6.4 0-10.667-4.267-10.667-10.667s4.267-10.666 10.667-10.666H928c6.4 0 10.667-4.267 10.667-10.667V245.333c0-6.4-4.267-10.666-10.667-10.666H778.667c-6.4 0-10.667-4.267-10.667-10.667s4.267-10.667 10.667-10.667H928c17.067 0 32 14.934 32 32V800c0 17.067-14.933 32-32 32z"/><path d="M288 384H181.333c-6.4 0-10.666-4.267-10.666-10.667s4.266-10.666 10.666-10.666H288c6.4 0 10.667 4.266 10.667 10.666S294.4 384 288 384z"/><path d="M608 341.333H458.667c-6.4 0-10.667-4.266-10.667-10.666S452.267 320 458.667 320H608c6.4 0 10.667 4.267 10.667 10.667S614.4 341.333 608 341.333z"/><path d="M885.333 384H778.667c-6.4 0-10.667-4.267-10.667-10.667s4.267-10.666 10.667-10.666h106.666c6.4 0 10.667 4.266 10.667 10.666S891.733 384 885.333 384z"/><path d="M608 512H458.667c-6.4 0-10.667-4.267-10.667-10.667s4.267-10.666 10.667-10.666H608c6.4 0 10.667 4.266 10.667 10.666S614.4 512 608 512zm0 192H458.667c-6.4 0-10.667-4.267-10.667-10.667s4.267-10.666 10.667-10.666H608c6.4 0 10.667 4.266 10.667 10.666S614.4 704 608 704z"/><path d="M885.333 554.667H778.667c-6.4 0-10.667-4.267-10.667-10.667s4.267-10.667 10.667-10.667h106.666c6.4 0 10.667 4.267 10.667 10.667s-4.267 10.667-10.667 10.667zm-597.333 0H181.333c-6.4 0-10.666-4.267-10.666-10.667s4.266-10.667 10.666-10.667H288c6.4 0 10.667 4.267 10.667 10.667S294.4 554.667 288 554.667z"/></svg>