<svg class="icon" viewBox="0 0 1024 1024" xmlns="http://www.w3.org/2000/svg" width="200" height="200"><defs><style/></defs><path d="M770.133 981.333H275.2c-17.067 0-32-14.933-32-32V74.667c0-17.067 12.8-32 32-32h497.067c17.066 0 32 14.933 32 32v874.666c-2.134 17.067-14.934 32-34.134 32zM275.2 64c-6.4 0-10.667 4.267-10.667 10.667v874.666c0 6.4 4.267 10.667 10.667 10.667h497.067c6.4 0 10.666-4.267 10.666-10.667V74.667c0-6.4-4.266-10.667-10.666-10.667H275.2z"/><path d="M684.8 226.133H360.533c-6.4 0-10.666-4.266-10.666-10.666s4.266-10.667 10.666-10.667H684.8c6.4 0 10.667 4.267 10.667 10.667s-4.267 10.666-10.667 10.666zm0 106.667H360.533c-6.4 0-10.666-4.267-10.666-10.667s4.266-10.666 10.666-10.666H684.8c6.4 0 10.667 4.266 10.667 10.666S691.2 332.8 684.8 332.8zM522.667 819.2c-36.267 0-64-29.867-64-64 0-36.267 29.866-64 64-64 36.266 0 64 29.867 64 64 0 36.267-27.734 64-64 64zm0-106.667c-23.467 0-42.667 19.2-42.667 42.667s19.2 42.667 42.667 42.667 42.666-19.2 42.666-42.667-19.2-42.667-42.666-42.667z"/></svg>