<svg class="icon" viewBox="0 0 1024 1024" xmlns="http://www.w3.org/2000/svg" width="200" height="200"><defs><style/></defs><path d="M512 825.6c-2.133 0-4.267 0-6.4-2.133l-416-300.8c-4.267-2.134-6.4-10.667-2.133-14.934 4.266-4.266 10.666-6.4 14.933-2.133L512 802.133 921.6 505.6c4.267-4.267 10.667-2.133 14.933 2.133 4.267 4.267 2.134 10.667-2.133 14.934l-416 300.8c-2.133 2.133-4.267 2.133-6.4 2.133z"/><path d="M512 682.667c-2.133 0-4.267 0-6.4-2.134L89.6 377.6c-4.267-2.133-6.4-8.533-2.133-14.933 4.266-4.267 10.666-6.4 14.933-2.134L512 657.067l409.6-296.534c4.267-4.266 10.667-2.133 14.933 2.134 4.267 4.266 2.134 10.666-2.133 14.933l-416 302.933c-2.133 0-4.267 2.134-6.4 2.134z"/><path d="M928 379.733c-2.133 0-4.267 0-6.4-2.133L512 81.067 102.4 377.6c-4.267 4.267-10.667 2.133-14.933-2.133C83.2 371.2 85.333 364.8 89.6 360.533l416-300.8c4.267-2.133 8.533-2.133 12.8 0l416 300.8c4.267 4.267 6.4 10.667 2.133 14.934-2.133 4.266-4.266 4.266-8.533 4.266zM512 966.4c-2.133 0-4.267 0-6.4-2.133l-416-300.8c-4.267-4.267-6.4-10.667-2.133-14.934 4.266-4.266 10.666-6.4 14.933-2.133L512 942.933 921.6 646.4c4.267-4.267 10.667-2.133 14.933 2.133 4.267 4.267 2.134 10.667-2.133 14.934l-416 300.8c-2.133 2.133-4.267 2.133-6.4 2.133z"/></svg>