<svg class="icon" viewBox="0 0 1024 1024" xmlns="http://www.w3.org/2000/svg" width="200" height="200"><defs><style/></defs><path d="M928 597.333H96c-6.4 0-10.667-4.266-10.667-10.666S89.6 576 96 576h832c6.4 0 10.667 4.267 10.667 10.667S934.4 597.333 928 597.333z"/><path d="M650.667 661.333c-6.4 0-10.667-4.266-10.667-10.666v-128c0-6.4 4.267-10.667 10.667-10.667s10.666 4.267 10.666 10.667v128c0 6.4-4.266 10.666-10.666 10.666zm-277.334 0c-6.4 0-10.666-4.266-10.666-10.666v-128c0-6.4 4.266-10.667 10.666-10.667S384 516.267 384 522.667v128c0 6.4-4.267 10.666-10.667 10.666z"/><path d="M906.667 917.333H117.333c-17.066 0-32-14.933-32-32V330.667c0-17.067 14.934-32 32-32h789.334c17.066 0 32 14.933 32 32v554.666c0 17.067-14.934 32-32 32zM117.333 320c-6.4 0-10.666 4.267-10.666 10.667v554.666c0 6.4 4.266 10.667 10.666 10.667h789.334c6.4 0 10.666-4.267 10.666-10.667V330.667c0-6.4-4.266-10.667-10.666-10.667H117.333z"/><path d="M706.133 320H317.867c-6.4 0-10.667-4.267-10.667-10.667V160c0-17.067 14.933-32 32-32h345.6c17.067 0 32 14.933 32 32v149.333c0 6.4-4.267 10.667-10.667 10.667zm-377.6-21.333h366.934V160c0-6.4-4.267-10.667-10.667-10.667H339.2c-6.4 0-10.667 4.267-10.667 10.667v138.667z"/></svg>