<svg class="icon" viewBox="0 0 1024 1024" xmlns="http://www.w3.org/2000/svg" width="64" height="64"><defs><style/></defs><path d="M512 67.332c-279.145 0-504.986 225.84-504.986 504.986 0 144.482 63.123 283.353 171.134 378.74 14.027 12.624 36.471 11.221 49.096-2.806 12.624-14.027 11.222-36.471-2.806-49.096-93.983-82.761-147.287-201.994-147.287-326.838 0-239.869 194.98-434.85 434.849-434.85s434.85 194.981 434.85 434.85c0 127.65-56.11 248.285-152.9 331.046-15.43 12.625-16.832 35.069-4.208 49.096 7.014 8.417 16.833 12.625 26.653 12.625 8.416 0 15.43-2.806 22.443-8.417 113.622-96.789 178.148-237.063 178.148-384.35 0-277.743-225.84-504.986-504.986-504.986z"/><path d="M499.375 295.978c11.222 0 21.041-9.82 21.041-21.041v-71.54c0-11.222-9.819-21.04-21.04-21.04s-21.042 9.818-21.042 21.04v71.54c0 11.222 9.82 21.041 21.041 21.041zm-106.608-77.15c-4.208-11.223-15.43-16.833-26.652-12.625-11.222 4.208-16.833 15.43-12.625 26.652l23.847 67.331c2.805 8.417 11.222 14.028 19.638 14.028 2.806 0 4.209 0 7.014-1.403 11.222-4.208 16.833-15.43 12.625-26.652l-23.847-67.332zm-113.622 58.914c-7.013-8.416-21.04-9.819-29.457-2.805-8.417 7.014-9.82 21.041-2.806 29.458l46.29 54.706c4.209 5.611 9.82 7.014 15.43 7.014 4.209 0 9.82-1.403 14.028-5.61 8.417-7.015 9.82-21.042 2.806-29.458l-46.29-53.305zm-46.29 166.926c2.805 1.403 7.013 2.806 9.819 2.806 7.014 0 14.027-4.208 18.236-11.222 5.61-9.82 2.805-22.444-7.014-28.055l-61.72-36.471c-9.82-5.61-22.444-2.805-28.055 7.014-5.611 9.819-2.806 22.444 7.013 28.055l61.72 37.873zM117.83 507.792c-1.403 11.222 5.611 22.444 16.833 23.846l70.137 12.625h4.208c9.82 0 18.236-7.014 21.041-16.833 1.403-11.222-5.61-22.444-16.833-23.846l-70.137-12.625c-12.624-1.403-23.846 5.61-25.249 16.833zm22.444 152.898h4.208l70.137-12.624c11.222-1.403 19.639-12.625 16.833-23.847-1.403-11.222-12.625-19.638-23.847-16.833l-70.137 12.625c-11.221 1.403-19.638 12.625-16.832 23.847 0 9.819 8.416 16.832 19.638 16.832zm96.789 46.29l-61.72 36.472c-9.82 5.611-14.028 18.236-7.014 28.055 4.208 7.014 11.222 11.222 18.235 11.222 4.209 0 7.014-1.403 9.82-2.806l61.72-36.47c9.82-5.612 14.028-18.237 7.014-28.056-5.611-11.222-18.236-15.43-28.055-8.416zm587.748 68.735c7.014 0 14.027-4.208 18.236-11.222 5.61-9.819 2.805-22.444-7.014-28.055l-61.72-36.47c-9.82-5.612-22.445-2.806-28.055 7.013-5.611 9.819-2.806 22.444 7.013 28.055l61.72 36.47c2.806 2.806 5.612 4.21 9.82 4.21zm-23.847-175.342c-11.222-1.403-22.443 5.61-23.846 16.832-1.403 11.222 5.61 22.444 16.833 23.847l70.137 12.625h4.208c9.82 0 18.236-7.014 21.041-16.833 1.403-11.222-5.611-22.444-16.833-23.847l-71.54-12.624zm61.72-116.428l-70.136 12.625c-11.222 1.403-19.638 12.625-16.833 23.846 1.403 9.82 11.222 16.833 21.041 16.833h4.208l70.137-12.624c11.222-1.403 19.639-12.625 16.833-23.847-2.805-11.222-14.027-18.236-25.25-16.833zm-103.802-42.082c4.208 0 7.014-1.403 9.82-2.805l61.72-36.472c9.82-5.61 14.027-18.235 7.014-28.054-5.611-9.82-18.236-14.028-28.055-7.014l-61.72 36.471c-9.82 5.611-14.028 18.236-7.014 28.055 4.208 5.61 11.221 9.819 18.235 9.819zm-7.014-171.134c-8.416-7.014-22.443-5.611-29.457 2.805l-46.29 54.707c-7.014 8.417-5.611 22.444 2.805 29.458 4.208 2.805 8.416 5.61 14.027 5.61s12.625-2.805 15.43-7.013l46.291-54.707c7.014-9.82 5.61-22.444-2.806-30.86zM601.775 312.81c8.417 0 16.833-5.611 19.639-14.027l23.846-67.332c4.208-11.222-1.402-22.444-12.624-26.652-11.222-4.208-22.444 1.403-26.652 12.625l-23.847 67.331c-4.208 11.222 1.403 22.444 12.625 26.652 1.402 1.403 4.208 1.403 7.013 1.403zm43.485 102.4c-12.624-9.82-30.86-7.014-40.68 5.61L512 542.862c-16.833 0-32.263 7.013-42.082 19.638-8.417 11.222-11.222 23.846-9.82 36.47 1.403 12.626 8.417 25.25 19.639 33.667 8.416 7.013 19.638 9.819 30.86 9.819h7.014c12.625-1.403 25.25-8.417 33.666-19.639 9.819-12.624 12.624-30.86 8.416-46.29l92.581-122.038c4.208-5.611 7.014-14.028 5.61-21.041-2.805-7.014-7.013-14.028-12.624-18.236z"/></svg>