<svg class="icon" viewBox="0 0 1024 1024" xmlns="http://www.w3.org/2000/svg" width="64" height="64"><defs><style/></defs><path d="M432.5 111.5c29.4 0 57 11.4 77.8 32.2 20.8 20.8 32.2 48.4 32.2 77.8 0 6.1-.5 12.3-1.5 18.4l-7.8 46.6h199.4v201.4l47.7-9.3c7-1.4 14.2-2.1 21.3-2.1 29.4 0 57 11.4 77.8 32.2 20.8 20.8 32.2 48.4 32.2 77.8s-11.4 57-32.2 77.8c-20.8 20.8-48.4 32.2-77.8 32.2-7.1 0-14.3-.7-21.3-2.1l-47.7-9.3v201.4h-157c-.9-76.4-63.4-138.3-140-138.3s-139 61.9-140 138.3h-163V720.7c57.8-17.3 100-70.9 100-134.2s-42.2-116.9-100-134.2V286.5H332l-7.8-46.6c-1-6.1-1.5-12.3-1.5-18.4 0-29.4 11.4-57 32.2-77.8 20.6-20.8 48.2-32.2 77.6-32.2m0-40c-82.8 0-150 67.2-150 150 0 8.5.7 16.9 2.1 25H92.5v240c55.2 0 100 44.8 100 100s-44.8 100-100 100v240h250.6c-4.9-11.8-7.6-24.7-7.6-38.3 0-55.2 44.8-100 100-100s100 44.8 100 100c0 13.6-2.7 26.5-7.6 38.3h244.6V733.7c9.4 1.8 19.1 2.8 29 2.8 82.8 0 150-67.2 150-150s-67.2-150-150-150c-9.9 0-19.6 1-29 2.8V246.5H580.4c1.4-8.1 2.1-16.5 2.1-25 0-82.8-67.2-150-150-150z"/></svg>