<svg class="icon" viewBox="0 0 1024 1024" xmlns="http://www.w3.org/2000/svg" width="200" height="200"><defs><style/></defs><path d="M390.4 966.4c-2.133 0-6.4-2.133-8.533-4.267-76.8-96-121.6-262.4-121.6-448s44.8-354.133 121.6-448c2.133-6.4 10.666-6.4 14.933-2.133 4.267 4.267 4.267 10.667 2.133 14.933-72.533 89.6-117.333 256-117.333 435.2s44.8 345.6 117.333 435.2c4.267 4.267 2.134 10.667-2.133 14.934-2.133 2.133-4.267 2.133-6.4 2.133z"/><path d="M970.667 524.8H53.333c-6.4 0-10.666-4.267-10.666-10.667s4.266-10.666 10.666-10.666h917.334c6.4 0 10.666 4.266 10.666 10.666s-4.266 10.667-10.666 10.667z"/><path d="M512 983.467c-6.4 0-10.667-4.267-10.667-10.667V55.467c0-6.4 4.267-10.667 10.667-10.667s10.667 4.267 10.667 10.667V972.8c0 6.4-4.267 10.667-10.667 10.667z"/><path d="M915.2 334.933H106.667c-6.4 0-10.667-4.266-10.667-10.666s4.267-10.667 10.667-10.667H915.2c6.4 0 10.667 4.267 10.667 10.667s-4.267 10.666-10.667 10.666z"/><path d="M755.2 524.8c-6.4 0-10.667-4.267-10.667-10.667 0-179.2-44.8-345.6-117.333-435.2-4.267-4.266-2.133-10.666 2.133-14.933 4.267-4.267 10.667-2.133 14.934 2.133 76.8 96 121.6 262.4 121.6 448 0 6.4-4.267 10.667-10.667 10.667zM590.933 712.533H106.667c-6.4 0-10.667-4.266-10.667-10.666s4.267-10.667 10.667-10.667h484.266c6.4 0 10.667 4.267 10.667 10.667s-4.267 10.666-10.667 10.666z"/><path d="M896 928H686.933c-17.066 0-29.866-14.933-29.866-32V748.8c0-17.067 12.8-32 29.866-32H896c17.067 0 29.867 14.933 29.867 32V896c0 19.2-14.934 32-29.867 32zM684.8 738.133c-4.267 0-8.533 4.267-8.533 10.667V896c0 6.4 4.266 10.667 8.533 10.667H896c4.267 0 8.533-4.267 8.533-10.667V748.8c0-6.4-4.266-10.667-8.533-10.667H684.8z"/><path d="M885.333 738.133c-6.4 0-10.666-4.266-10.666-10.666v-38.4c0-46.934-38.4-85.334-85.334-85.334S704 642.133 704 689.067v38.4c0 6.4-4.267 10.666-10.667 10.666s-10.666-4.266-10.666-10.666v-38.4c0-57.6 46.933-106.667 106.666-106.667S896 629.333 896 689.067v38.4c0 6.4-4.267 10.666-10.667 10.666z"/><path d="M512 983.467c-258.133 0-469.333-211.2-469.333-469.334S253.867 44.8 512 44.8 981.333 256 981.333 514.133c0 25.6-2.133 51.2-6.4 76.8 0 6.4-6.4 10.667-12.8 8.534-6.4 0-10.666-6.4-8.533-12.8C957.867 563.2 960 537.6 960 512c0-247.467-200.533-448-448-448S64 264.533 64 512s200.533 448 448 448c25.6 0 51.2-2.133 76.8-6.4 6.4 0 10.667 2.133 12.8 8.533 0 6.4-2.133 10.667-8.533 12.8-27.734 6.4-53.334 8.534-81.067 8.534z"/></svg>