<svg class="icon" viewBox="0 0 1024 1024" xmlns="http://www.w3.org/2000/svg" width="200" height="200"><defs><style/></defs><path d="M970.667 522.667H53.333c-4.266 0-10.666-4.267-10.666-10.667s4.266-10.667 10.666-10.667h917.334c6.4 0 10.666 4.267 10.666 10.667s-4.266 10.667-10.666 10.667z"/><path d="M512 981.333c-6.4 0-10.667-4.266-10.667-10.666V53.333c0-6.4 6.4-10.666 10.667-10.666s10.667 4.266 10.667 10.666v917.334c0 6.4-4.267 10.666-10.667 10.666z"/><path d="M390.4 964.267c-2.133 0-6.4-2.134-8.533-4.267-76.8-96-121.6-262.4-121.6-448s44.8-354.133 121.6-448c4.266-4.267 10.666-4.267 14.933-2.133 4.267 4.266 4.267 10.666 2.133 14.933C326.4 166.4 281.6 332.8 281.6 512s44.8 345.6 117.333 435.2c4.267 4.267 2.134 10.667-2.133 14.933-2.133 2.134-4.267 2.134-6.4 2.134zm245.333 0c-2.133 0-4.266 0-6.4-2.134-4.266-4.266-4.266-10.666-2.133-14.933 72.533-89.6 117.333-256 117.333-435.2S699.733 166.4 627.2 76.8c-4.267-4.267-2.133-10.667 2.133-14.933C633.6 57.6 640 59.733 644.267 64c76.8 96 121.6 262.4 121.6 448s-44.8 354.133-121.6 448c-2.134 4.267-6.4 4.267-8.534 4.267z"/><path d="M915.2 332.8H106.667c-6.4 0-10.667-4.267-10.667-10.667s4.267-10.666 10.667-10.666H915.2c6.4 0 10.667 4.266 10.667 10.666S921.6 332.8 915.2 332.8zm0 379.733H106.667c-6.4 0-10.667-4.266-10.667-10.666s4.267-10.667 10.667-10.667H915.2c6.4 0 10.667 4.267 10.667 10.667s-4.267 10.666-10.667 10.666z"/><path d="M512 981.333c-258.133 0-469.333-211.2-469.333-469.333S253.867 42.667 512 42.667 981.333 253.867 981.333 512 772.267 981.333 512 981.333zM512 64C266.667 64 64 264.533 64 512s200.533 448 448 448 448-200.533 448-448S759.467 64 512 64z"/></svg>