<svg class="icon" viewBox="0 0 1024 1024" xmlns="http://www.w3.org/2000/svg" width="64" height="64"><defs><style/></defs><path d="M1013.103 950.22L855.548 793.828a43.287 43.287 0 0 0-10.333-6.563 234.495 234.495 0 0 0-1.397-269.031 235.332 235.332 0 0 0-253.531-91.135 31.465 31.465 0 0 0-14.103 52.596l126.51 126.323-97.373 99.048-126.044-125.811a31.558 31.558 0 0 0-52.643 14.056 234.495 234.495 0 0 0 40.727 202.379 235.286 235.286 0 0 0 185.017 92.066 235.426 235.426 0 0 0 133.585-41.797 43.194 43.194 0 0 0 6.563 9.867L950.08 1013.15c17.687 15.267 44.265 14.336 60.835-2.234a44.544 44.544 0 0 0 2.187-60.695zM652.378 840.792a188.275 188.275 0 0 1-140.706-61.952 187.624 187.624 0 0 1-47.43-146.058l141.079 140.845 163.7-167.609-138.24-140.892a188.322 188.322 0 0 1 153.273 53.527 187.577 187.577 0 0 1 42.682 205.264 188.136 188.136 0 0 1-174.358 116.829zm14.615-701.156H170.822c-17.222 0-31.186 10.24-31.186 23.272s13.964 23.273 31.186 23.273h496.171c17.222 0 31.186-10.24 31.186-23.273s-13.964-23.272-31.186-23.272zm31.186 162.908c0-13.033-13.964-23.273-31.186-23.273H170.822c-17.222 0-31.186 10.24-31.186 23.273s13.964 23.272 31.186 23.272h496.171c17.222 0 31.186-10.24 31.186-23.272zM172.684 418.907c-18.153 0-33.048 10.24-33.048 23.272s14.895 23.273 33.048 23.273h166.631c18.153 0 33.047-10.24 33.047-23.273s-14.894-23.272-33.047-23.272H172.684z"/><path d="M462.66 977.449H154.996a109.381 109.381 0 0 1-108.45-109.847v-711.21a109.381 109.381 0 0 1 108.45-109.847H682.82a109.381 109.381 0 0 1 108.45 109.847v222.486a23.273 23.273 0 1 0 46.545 0V156.392A155.926 155.926 0 0 0 682.82 0H154.996A155.926 155.926 0 0 0 .001 156.392v711.21a155.926 155.926 0 0 0 154.995 156.392H462.66a23.273 23.273 0 0 0 0-46.545z"/></svg>