<?xml version="1.0" standalone="no"?><!DOCTYPE svg PUBLIC "-//W3C//DTD SVG 1.1//EN" "http://www.w3.org/Graphics/SVG/1.1/DTD/svg11.dtd"><svg t="1603175719000" class="icon" viewBox="0 0 1024 1024" version="1.1" xmlns="http://www.w3.org/2000/svg" p-id="1700" xmlns:xlink="http://www.w3.org/1999/xlink" width="200" height="200"><defs><style type="text/css"></style></defs><path d="M661.2 127c21.4 0 42.6 2.9 63.1 8.6L592.6 267.2l-28.3 28.3 28.3 28.3 107.6 107.6 28.3 28.3 28.3-28.3 131.7-131.7c1.8 6.5 3.3 13.1 4.6 19.8 4.6 24.6 5.2 49.8 1.9 74.6-3.3 25.1-10.6 49.3-21.7 72-11.4 23.4-26.7 44.8-45.3 63.4-22.5 22.5-48.8 39.9-78 51.8-28.2 11.5-58.1 17.3-88.7 17.3-28.5 0-56.3-5-82.9-15l-24.1-9-18.2 18.2-287.7 287.6-104.8-104.8 287.7-287.7 18.2-18.2-9-24.1c-15.7-41.8-19.1-87.1-10-131 9.3-44.9 31.5-85.9 64.1-118.6 22.5-22.5 48.8-39.9 78-51.8 28.1-11.4 58-17.2 88.6-17.2m0-40c-70.6 0-141.1 26.9-195 80.8-78.9 78.9-100 193.8-63.3 291.9l-316 316L248.4 937l316-316c31.2 11.7 64 17.5 96.9 17.5 70.6 0 141.1-26.9 195-80.8 89-89 104.5-223.8 46.3-328.7l-174 174-107.7-107.5 174-174C753.5 98.5 707.3 87 661.2 87z" fill="#ffffff" p-id="1701"></path></svg>