<svg class="icon" viewBox="0 0 1024 1024" xmlns="http://www.w3.org/2000/svg" width="200" height="200"><defs><style/></defs><path d="M516.267 979.2C258.133 979.2 46.933 768 46.933 509.867s211.2-469.334 469.334-469.334S985.6 251.733 985.6 509.867 776.533 979.2 516.267 979.2zm0-917.333c-247.467 0-448 200.533-448 448s200.533 448 448 448 448-200.534 448-448c0-245.334-200.534-448-448-448z"/><path d="M716.8 761.6H317.867c-14.934 0-27.734-12.8-27.734-27.733v-211.2c0-8.534 4.267-19.2 12.8-23.467L384 445.867c2.133-2.134 2.133-4.267 2.133-6.4v-147.2c0-14.934 12.8-27.734 27.734-27.734h300.8c14.933 0 27.733 12.8 27.733 27.734V736c2.133 12.8-10.667 25.6-25.6 25.6zM416 281.6c-4.267 0-6.4 2.133-6.4 6.4v147.2c0 8.533-4.267 19.2-12.8 23.467L315.733 512c-2.133 2.133-2.133 4.267-2.133 6.4v211.2c0 4.267 2.133 6.4 6.4 6.4h396.8c4.267 0 6.4-2.133 6.4-6.4V290.133c0-4.266-2.133-6.4-6.4-6.4H416z"/><path d="M482.133 486.4c-6.4 0-10.666-4.267-10.666-10.667V343.467c0-6.4 4.266-10.667 10.666-10.667s10.667 4.267 10.667 10.667v132.266c0 4.267-6.4 10.667-10.667 10.667zm83.2 0c-6.4 0-10.666-4.267-10.666-10.667V343.467c0-6.4 4.266-10.667 10.666-10.667S576 337.067 576 343.467v132.266c0 4.267-6.4 10.667-10.667 10.667zm83.2 0c-6.4 0-10.666-4.267-10.666-10.667V343.467c0-6.4 4.266-10.667 10.666-10.667s10.667 4.267 10.667 10.667v132.266c0 4.267-6.4 10.667-10.667 10.667z"/></svg>