<svg class="icon" viewBox="0 0 1024 1024" xmlns="http://www.w3.org/2000/svg" width="64" height="64"><defs><style/></defs><path d="M674.508 598.338H287.08c-14.137 0-25.64 11.5-25.64 25.637 0 14.138 11.503 25.641 25.64 25.641h387.428c14.138 0 25.64-11.502 25.64-25.64s-11.501-25.638-25.64-25.638zm120.238-213.755c-14.138 0-25.64 11.502-25.64 25.64v494.3c0 .13 0 .28-.002.434-.9.28-2.666.644-5.764.644H200.048c-4.313 0-7.565-2.971-7.565-6.913V191.851c0-4.493.975-8.288 1.812-9.821h373.338c14.137 0 25.64-11.502 25.64-25.64 0-14.137-11.502-25.64-25.64-25.64h-374.07c-30.337 0-52.357 25.697-52.357 61.1v706.837c0 32.087 26.396 58.191 58.84 58.191H763.34c34.119 0 57.042-21.04 57.042-52.356V410.224c.001-14.138-11.499-25.641-25.636-25.641zM674.508 745.295H287.08c-14.137 0-25.64 11.5-25.64 25.637 0 14.138 11.503 25.641 25.64 25.641h387.428c14.138 0 25.64-11.502 25.64-25.64s-11.501-25.638-25.64-25.638zm205.088-588.188c-3.773-14.409-12.872-28.25-24.965-37.976l-43.827-35.24c-12.88-10.353-29.277-16.29-44.987-16.29-16.876 0-31.594 6.747-41.44 18.995l-19.624 24.382c-6.38 7.968-7.988 17.577-5.223 26.916L585.288 279.957l-2.487 3.09-22.813 85.304c-9.749 30.86 4.45 48.076 13.807 55.609 6.783 5.45 14.468 8.729 22.851 9.754.985.247 2.126.488 3.44.632 1.005.11 2.054.168 3.119.168h.014c4.589 0 10.048-.996 17.18-3.135l2.878-1.065 83.402-41.898 119.875-149.079c.44.017.88.033 1.32.033 9.219 0 17.411-3.863 23.077-10.892l19.563-24.343c10.41-12.937 13.636-29.64 9.082-47.028zM674.47 348.565l-56.738 28.538a23.984 23.984 0 0 0-8.278 3.296c-.313.198-.615.386-.906.563.124-.319.254-.64.393-.972 1-2.437 1.589-5.022 1.754-7.702l17.733-66.079L734.16 174.72l48.648 39.114-108.338 134.73zm156.916-175.646l-7.68 9.55-68.14-54.779 7.687-9.564c.292-.132 1.144-.383 2.604-.383 4.284 0 9.736 2.07 13.57 5.156l43.833 35.246c3.493 2.806 6.42 7.019 7.642 10.993.595 1.943.59 3.309.484 3.781zM487.475 291.067H287.08c-14.137 0-25.64 11.502-25.64 25.64 0 14.137 11.503 25.638 25.64 25.638h200.394c14.138 0 25.64-11.5 25.64-25.638 0-14.138-11.503-25.64-25.64-25.64zm187.033 146.956H287.08c-14.137 0-25.64 11.501-25.64 25.64s11.503 25.638 25.64 25.638h387.428c14.138 0 25.64-11.502 25.64-25.639s-11.501-25.639-25.64-25.639z"/></svg>