<svg class="icon" viewBox="0 0 1024 1024" xmlns="http://www.w3.org/2000/svg" width="200" height="200"><defs><style/></defs><path d="M512 580.267c-2.133 0-4.267 0-4.267-2.134l-230.4-113.066c-4.266-2.134-6.4-8.534-4.266-14.934 2.133-4.266 8.533-6.4 14.933-4.266L512 556.8l224-113.067c4.267-2.133 10.667 0 14.933 4.267 2.134 4.267 0 10.667-4.266 14.933l-230.4 115.2c0 2.134-2.134 2.134-4.267 2.134z"/><path d="M512 866.133c-6.4 0-10.667-4.266-10.667-10.666V569.6c0-6.4 4.267-10.667 10.667-10.667s10.667 4.267 10.667 10.667v285.867c0 6.4-4.267 10.666-10.667 10.666z"/><path d="M742.4 981.333c-2.133 0-4.267 0-4.267-2.133L512 868.267 288 981.333h-10.667L49.067 870.4c-4.267 0-6.4-4.267-6.4-8.533V569.6c0-4.267 2.133-8.533 6.4-8.533l224-113.067V168.533c0-4.266 2.133-8.533 6.4-8.533l230.4-115.2c2.133-2.133 6.4-2.133 8.533 0l228.267 113.067c4.266 2.133 6.4 6.4 6.4 8.533V448l224 110.933c4.266 2.134 6.4 6.4 6.4 8.534v292.266c0 4.267-2.134 8.534-6.4 10.667l-230.4 110.933H742.4zM512 844.8c2.133 0 4.267 0 4.267 2.133l224 113.067L960 855.467V576L736 465.067c-4.267-2.134-6.4-6.4-6.4-8.534v-281.6L512 66.133l-217.6 108.8V454.4c0 4.267-2.133 8.533-6.4 8.533L64 576v279.467L281.6 960l224-113.067c2.133-2.133 4.267-2.133 6.4-2.133zM281.6 454.4z"/></svg>