<svg class="icon" viewBox="0 0 1024 1024" xmlns="http://www.w3.org/2000/svg" width="200" height="200"><path d="M802.133 136.533C793.6 134.4 787.2 134.4 778.667 134.4h-588.8 588.8c8.533 0 17.066 0 23.466 2.133zm27.734 8.534c-2.134 0-2.134-2.134-4.267-2.134 2.133 0 4.267 2.134 4.267 2.134zm49.066 40.533c-2.133-2.133-4.266-6.4-6.4-8.533 2.134 4.266 4.267 6.4 6.4 8.533zM921.6 832H891.733V232.533c0-8.533 0-14.933-2.133-23.466 2.133 6.4 2.133 14.933 2.133 23.466V832H921.6zm19.2-6.4c-2.133 2.133-6.4 2.133-8.533 4.267 2.133-2.134 6.4-2.134 8.533-4.267zm49.067-797.867c-21.334-17.066-49.067-25.6-76.8-25.6H245.333c-29.866 0-57.6 8.534-76.8 25.6-21.333 19.2-34.133 44.8-34.133 70.4v34.134h-21.333c-29.867 0-57.6 8.533-76.8 25.6C12.8 179.2 0 204.8 0 232.533v693.334c0 27.733 12.8 53.333 34.133 70.4 21.334 17.066 49.067 25.6 76.8 25.6h665.6c29.867 0 57.6-8.534 76.8-25.6 21.334-19.2 36.267-44.8 36.267-70.4v-34.134h19.2c29.867 0 57.6-8.533 76.8-25.6 21.333-19.2 34.133-44.8 34.133-70.4V100.267c4.267-27.734-8.533-53.334-29.866-72.534zm-155.734 896c0 21.334-25.6 38.4-55.466 38.4h-665.6c-29.867 0-55.467-17.066-55.467-38.4v-691.2c0-21.333 25.6-38.4 55.467-38.4H778.667c29.866 0 55.466 17.067 55.466 38.4v691.2zM966.4 791.467c0 8.533-4.267 17.066-10.667 23.466l-2.133 2.134c-2.133 2.133-4.267 4.266-6.4 4.266 0 0-2.133 0-2.133 2.134s-2.134 0-2.134 2.133c0 0-2.133 0-2.133 2.133h-2.133c-2.134 2.134-6.4 2.134-8.534 4.267H928h-2.133c-2.134 0-4.267 0-6.4 2.133H889.6v-601.6c0-8.533 0-14.933-2.133-23.466 0-2.134 0-2.134-2.134-4.267 0-2.133 0-2.133-2.133-4.267 0-2.133 0-2.133-2.133-4.266 0-2.134-2.134-2.134-2.134-4.267-2.133-2.133-2.133-4.267-4.266-6.4-2.134-2.133-4.267-6.4-6.4-8.533-2.134-4.267-6.4-6.4-8.534-10.667-2.133-2.133-4.266-4.267-8.533-6.4l-4.267-4.267-2.133-2.133c-2.133 0-2.133-2.133-4.267-2.133-4.266-2.134-10.666-6.4-14.933-8.534-2.133 0-2.133-2.133-4.267-2.133-2.133 0-4.266-2.133-6.4-2.133H812.8c-4.267 0-6.4-2.134-10.667-2.134h-6.4C787.2 134.4 780.8 134.4 772.267 134.4h-582.4v-34.133c0-4.267 0-8.534 2.133-12.8 2.133-4.267 4.267-6.4 8.533-10.667 10.667-10.667 25.6-17.067 44.8-17.067h665.6c29.867 0 55.467 17.067 55.467 38.4v693.334zm-817.067-537.6h428.8v57.6h-428.8v-57.6zM672 283.733c0-17.066 12.8-29.866 29.867-32 17.066 0 29.866 12.8 32 29.867v2.133c0 17.067-12.8 29.867-29.867 32-17.067 0-29.867-12.8-32-29.866v-2.134zM57.6 362.667h776.533v57.6H57.6v-57.6z"/></svg>