<svg class="icon" viewBox="0 0 1024 1024" xmlns="http://www.w3.org/2000/svg" width="64" height="64"><defs><style/></defs><path d="M1024 884.288v-60.8c0-18.624-15.104-33.728-33.728-33.728H640v128.256h350.272c18.624-.064 33.728-15.168 33.728-33.728zM0 481.536v60.8c0 18.624 15.104 33.728 33.728 33.728h520.896V447.808H33.728C15.104 447.936 0 462.912 0 481.536zm0 341.888v60.8c0 18.624 15.104 33.728 33.728 33.728h307.584V789.76H33.728C15.104 789.824 0 804.864 0 823.424zm0-683.776v60.8c0 18.624 15.104 33.728 33.728 33.728H213.44V105.92H33.728C15.104 106.048 0 121.024 0 139.648zm256-76.352v213.696c0 23.616 19.072 42.688 42.688 42.688h128c23.616 0 42.688-19.072 42.688-42.688V63.296c0-23.616-19.136-42.688-42.688-42.688h-128C275.072 20.48 256 39.744 256 63.296zm768 137.28v-60.8c0-18.624-15.104-33.728-33.728-33.728H512v128.256h478.272c18.624-.128 33.728-15.168 33.728-33.728zM597.312 405.12v213.76c0 23.616 19.072 42.688 42.688 42.688h128c23.616 0 42.688-19.072 42.688-42.688V405.248c0-23.616-19.072-42.688-42.688-42.688H640c-23.616-.192-42.688 18.944-42.688 42.56zM1024 542.464v-60.8c0-18.624-15.104-33.728-33.728-33.728h-136.96v128.128h136.96c18.624 0 33.728-14.976 33.728-33.6zM384 747.008v213.696c0 23.616 19.072 42.688 42.688 42.688h128c23.616 0 42.688-19.072 42.688-42.688V747.008c0-23.616-19.136-42.688-42.688-42.688h-128c-23.616 0-42.688 19.072-42.688 42.688zm0 0"/></svg>