<svg class="icon" viewBox="0 0 1024 1024" xmlns="http://www.w3.org/2000/svg" width="200" height="200"><defs><style/></defs><path d="M302.933 277.333h-55.466c-6.4 0-10.667-4.266-10.667-10.666S241.067 256 247.467 256h55.466c6.4 0 10.667 4.267 10.667 10.667s-4.267 10.666-10.667 10.666zm0 217.6h-55.466c-6.4 0-10.667-4.266-10.667-10.666s4.267-10.667 10.667-10.667h55.466c6.4 0 10.667 4.267 10.667 10.667s-4.267 10.666-10.667 10.666z"/><path d="M904.533 386.133H140.8c-6.4 0-10.667-4.266-10.667-10.666v-198.4c0-17.067 14.934-32 32-32h723.2c17.067 0 32 14.933 32 32v196.266c-2.133 6.4-6.4 12.8-12.8 12.8zM151.467 364.8H896V177.067c0-6.4-4.267-10.667-10.667-10.667h-723.2c-6.4 0-10.666 4.267-10.666 10.667V364.8z"/><path d="M883.2 603.733H162.133c-17.066 0-32-14.933-32-32V375.467c0-6.4 4.267-10.667 10.667-10.667h765.867c6.4 0 10.666 4.267 10.666 10.667v196.266c-2.133 17.067-14.933 32-34.133 32zm-731.733-217.6v185.6c0 6.4 4.266 10.667 10.666 10.667h723.2c6.4 0 10.667-4.267 10.667-10.667v-185.6H151.467zm371.2 492.8c-36.267 0-66.134-29.866-66.134-66.133s29.867-66.133 66.134-66.133c36.266 0 66.133 29.866 66.133 66.133s-29.867 66.133-66.133 66.133zm0-110.933c-23.467 0-44.8 19.2-44.8 44.8s19.2 44.8 44.8 44.8 44.8-19.2 44.8-44.8-21.334-44.8-44.8-44.8z"/><path d="M960 823.467H578.133c-6.4 0-10.666-4.267-10.666-10.667s4.266-10.667 10.666-10.667H960c6.4 0 10.667 4.267 10.667 10.667S966.4 823.467 960 823.467zm-874.667 0c-6.4 0-10.666-4.267-10.666-10.667s4.266-10.667 10.666-10.667H460.8c6.4 0 10.667 4.267 10.667 10.667s-4.267 10.667-10.667 10.667H85.333zm437.334-59.734c-6.4 0-10.667-4.266-10.667-10.666v-160c0-6.4 4.267-10.667 10.667-10.667s10.666 4.267 10.666 10.667v160c0 6.4-4.266 10.666-10.666 10.666z"/></svg>