<svg class="icon" viewBox="0 0 1024 1024" xmlns="http://www.w3.org/2000/svg" width="200" height="200"><path d="M334.144 118.56H214.8a99.504 99.504 0 0 0-99.376 99.392V327.68a24 24 0 0 0 48 0V217.952A51.424 51.424 0 0 1 214.8 166.56h119.344a24 24 0 0 0 0-48zM809.184 118.56H689.856a24 24 0 0 0 0 48H809.2a51.44 51.44 0 0 1 51.392 51.392V327.68a24 24 0 0 0 48 0V217.952a99.504 99.504 0 0 0-99.408-99.392zM334.144 857.44H214.8a51.44 51.44 0 0 1-51.376-51.392V696.32a24 24 0 0 0-48 0v109.728A99.504 99.504 0 0 0 214.8 905.44h119.344a24 24 0 0 0 0-48zM884.576 672.336a24 24 0 0 0-24 24v109.728a51.456 51.456 0 0 1-51.392 51.392H689.856a24 24 0 0 0 0 48H809.2a99.504 99.504 0 0 0 99.392-99.392V696.336a24 24 0 0 0-24.016-24zM390.16 354.688a24 24 0 0 0-24 24v283.888a24 24 0 0 0 48 0V378.688a24 24 0 0 0-24-24zM760.256 479.248A124.336 124.336 0 0 0 559.168 381.2v-2.512a24 24 0 0 0-48 0v283.888a24 24 0 0 0 48 0V577.28a124.352 124.352 0 0 0 201.088-98.032zm-201.088 0a76.544 76.544 0 1 1 76.544 76.528 76.64 76.64 0 0 1-76.576-76.528z"/><path d="M295.056 325.504a24 24 0 1 0 33.936-33.936l-76.08-76.08a24 24 0 1 0-33.936 33.936zM814.08 215.488a24 24 0 0 0-33.952 0l-76.064 76.08A24 24 0 0 0 738 325.504l76.08-76.08a24 24 0 0 0 0-33.936zM218.976 817.968a24 24 0 0 0 33.936 0l76.08-76.064a24 24 0 1 0-33.936-33.936l-76.08 76.064a24 24 0 0 0 0 33.936zM738 707.968a24 24 0 0 0-33.936 33.936l76.064 76.064a24 24 0 0 0 33.952-33.936z"/></svg>