<svg class="icon" viewBox="0 0 1050 1024" xmlns="http://www.w3.org/2000/svg" width="200" height="200"><path d="M272.871 970.475h-94.165c-.768 4.05-1.34 8.407-1.34 13.381 0 26.763 27.287 26.763 27.287 26.763 7.535 0 13.644 2.996 13.644 6.69S212.19 1024 204.653 1024H95.504c-7.535 0-13.643-2.995-13.643-6.69 0-3.694 6.108-6.691 13.643-6.691 0 0 27.288 0 27.288-26.763 0-4.975-.571-9.33-1.339-13.38H27.286C12.216 970.475 0 958.492 0 943.711V756.377c0-14.782 12.216-26.763 27.287-26.763H272.87c15.07 0 27.287 11.981 27.287 26.763v187.335c0 14.782-12.217 26.763-27.287 26.763zm27.287-41.36H0v17.031h300.158v-17.03zm347.721 40.936h-94.1c-.768 4.043-1.339 8.39-1.339 13.357 0 26.715 27.269 26.715 27.269 26.715 7.529 0 13.634 2.992 13.634 6.68 0 3.689-6.105 6.679-13.634 6.679H470.636c-7.53 0-13.634-2.99-13.634-6.679 0-3.688 6.103-6.68 13.634-6.68 0 0 27.268 0 27.268-26.714 0-4.967-.571-9.315-1.339-13.358h-94.1c-15.06 0-27.268-11.96-27.268-26.715V756.328c0-14.753 12.209-26.715 27.268-26.715H647.88c15.059 0 27.268 11.96 27.268 26.715v187.007c0 14.754-12.208 26.714-27.268 26.714zm27.268-41.286h-299.95v17h299.95v-17zM647.88 240.437h-94.1c-.768 4.043-1.339 8.39-1.339 13.357 0 26.715 27.269 26.715 27.269 26.715 7.529 0 13.634 2.991 13.634 6.68 0 3.688-6.105 6.678-13.634 6.678H470.636c-7.53 0-13.634-2.99-13.634-6.678 0-3.689 6.103-6.68 13.634-6.68 0 0 27.268 0 27.268-26.714 0-4.968-.571-9.315-1.339-13.358h-94.1c-15.06 0-27.268-11.96-27.268-26.715V26.714C375.197 11.961 387.406 0 402.465 0H647.88c15.059 0 27.268 11.96 27.268 26.715v187.007c0 14.754-12.208 26.714-27.268 26.714zm27.268-41.287h-299.95v17h299.95v-17zm348.119 771.325H929.1c-.767 4.05-1.339 8.407-1.339 13.381 0 26.763 27.287 26.763 27.287 26.763 7.535 0 13.643 2.996 13.643 6.69s-6.107 6.691-13.643 6.691H845.899c-7.535 0-13.643-2.995-13.643-6.69 0-3.694 6.108-6.691 13.643-6.691 0 0 27.288 0 27.288-26.763 0-4.975-.572-9.33-1.34-13.38h-94.166c-15.07 0-27.286-11.983-27.286-26.764V756.377c0-14.782 12.216-26.763 27.286-26.763h245.585c15.07 0 27.286 11.981 27.286 26.763v187.335c0 14.782-12.216 26.763-27.286 26.763zm27.286-41.36H750.395v17.031h300.157v-17.03zM503.49 443.908V314.011h48.748v129.897h379.407v259.515h-48.75V508.856H552.238v197.67H503.49v-197.67H179.202v188.74h-48.749V443.908H503.49z"/></svg>