<svg class="icon" viewBox="0 0 1024 1024" xmlns="http://www.w3.org/2000/svg" width="200" height="200"><path d="M889.225 968.43H134.774c-30.574 0-55.752-25.178-55.752-55.751V124.955c0-30.573 25.178-55.752 55.752-55.752h754.451c30.574 0 55.752 25.179 55.752 55.752v787.723c.001 30.574-25.177 55.752-55.752 55.752zM134.774 116.862a8.06 8.06 0 0 0-8.094 8.093v787.723a8.06 8.06 0 0 0 8.094 8.093h754.451a8.06 8.06 0 0 0 8.094-8.093V124.955a8.06 8.06 0 0 0-8.094-8.093H134.774z"/><path d="M400.046 448.677V232.862c0-18.885-15.287-34.17-34.17-34.17-18.884 0-34.17 15.286-34.17 34.17v214.915c-34.17 13.489-57.551 46.76-57.551 85.427v85.427c0 38.666 24.279 71.938 57.55 85.426v99.814c0 18.885 15.288 34.17 34.171 34.17s34.17-15.286 34.17-34.17v-98.914c34.17-13.489 57.55-46.76 57.55-85.427v-85.427c0-38.666-23.38-71.938-57.55-85.426zm9.891 170.853c0 24.279-19.782 44.063-44.062 44.063s-44.063-19.783-44.063-44.063v-85.427c0-24.279 19.783-44.062 44.063-44.062s44.062 19.782 44.062 44.062v85.427zM692.295 303.002v-69.241c0-18.884-15.287-34.17-34.17-34.17-18.884 0-34.17 15.287-34.17 34.17v69.241c-34.17 13.488-57.55 46.76-57.55 85.427v85.426c0 38.667 24.278 71.939 57.55 85.427V804.77c0 18.884 15.287 34.17 34.17 34.17 18.884 0 34.17-15.287 34.17-34.17v-245.49c34.17-13.487 57.551-46.76 57.551-85.426V388.43c.898-38.668-23.38-71.939-57.55-85.427zm9.892 170.853c0 10.791-3.597 19.783-9.892 27.876-8.093 9.891-20.682 17.085-34.17 17.085-14.388 0-26.078-6.294-34.17-17.085-6.295-7.194-9.891-17.085-9.891-27.876V388.43c0-10.791 3.596-19.783 9.89-27.876 8.094-9.892 20.683-17.085 34.171-17.085 14.388 0 26.078 6.294 34.17 17.085 6.295 7.194 9.892 17.085 9.892 27.876v85.426z"/></svg>