<svg class="icon" viewBox="0 0 1117 1024" xmlns="http://www.w3.org/2000/svg" width="200" height="200"><path d="M442.898 116.05l2.234.744L74.84 1.368A61.902 61.902 0 0 0 0 61.967V945.25a61.995 61.995 0 0 0 74.84 60.598l379.508-118.124a77.074 77.074 0 0 0 41.981-68.511V189.586a77.54 77.54 0 0 0-53.43-73.537zm-39.654 676.168L93.085 874.412V132.618l310.16 82.38v577.127zM1054.467.065a77.26 77.26 0 0 0-12.846 1.303L675.797 115.491l1.303-.187a77.447 77.447 0 0 0-56.968 74.468v629.162c0 29.88 17.035 55.85 41.982 68.696l379.228 118.218a61.995 61.995 0 0 0 75.026-60.691V61.967A61.53 61.53 0 0 0 1054.467.158z" opacity=".801"/></svg>