<svg class="icon" viewBox="0 0 1024 1024" xmlns="http://www.w3.org/2000/svg" width="200" height="200"><path d="M758.784 732.992c-44.608 0-80.96 35.072-80.96 78.272s36.288 78.272 80.96 78.272c44.544 0 80.768-35.072 80.768-78.272s-36.16-78.272-80.768-78.272zm0 118.976c-23.296 0-42.368-18.304-42.368-40.704s19.072-40.64 42.368-40.64 42.24 18.24 42.24 40.64-18.88 40.704-42.24 40.704z"/><path d="M112.448 796.8H513.92l-.704-48.64H114.752l68.928-635.52h598.976l54.464 483.968 50.432-2.112-56.96-524.864L830.08 64H136.512L64 754.496V940.8h450.304l.192-48.64H112.448z"/><path d="M385.728 412.032l-2.432 8.128h31.808l1.536-4.16c14.656-40.896 51.136-67.456 94.4-70.848l.064-32.576a141.696 141.696 0 0 0-125.376 99.456z"/><path d="M486.784 225.088a179.84 179.84 0 0 0-169.28 119.04 139.008 139.008 0 0 0-109.952 136c0 75.392 39.424 105.92 55.936 105.92l396.544.32c28.032 0 89.28-20.544 89.28-81.344a113.728 113.728 0 0 0-82.88-109.888 179.2 179.2 0 0 0-179.648-170.048zm181.888 315.136c-1.344 0-4.352 0-8.384-.128l-6.464-.064-373.76.192c-4.352 0-26.752-10.56-26.752-60.16a93.44 93.44 0 0 1 94.4-93.056h5.376l.832-5.312c5.248-32.128 23.808-55.552 29.44-62.08a133.952 133.952 0 0 1 130.304-45.952 133.568 133.568 0 0 1 101.824 93.44l.704 1.472c3.456 5.632 5.888 30.976 5.888 62.208v7.04l6.976-.832c1.92-.192 4.16-.32 6.592-.32 38.848 0 68.096 41.408 68.096 68.288 0 26.624-26.048 35.264-35.072 35.264zm245.056 145.28h-48.96l-28.672-46.016H681.28l-28.544 46.016H603.84c-16.64 0-46.336 14.848-46.336 44.672v184.832c0 25.728 23.168 44.992 43.968 44.992h313.024C935.168 960 960 940.032 960 915.264V730.496c0-15.68-15.872-44.992-46.272-44.992zm1.472 46.592l-.128 181.44c-.704.64-1.6 1.536-2.368 2.112H603.648c-.576-.448-1.152-1.024-1.28-1.024l-.256-183.232a9.728 9.728 0 0 1 2.88-1.856h73.088l28.672-46.08h104.96l18.112 29.44 9.408 16.32 73.92-.064c.128.064.832.512 2.048 2.944z"/></svg>