<svg class="icon" viewBox="0 0 1024 1024" xmlns="http://www.w3.org/2000/svg" width="64" height="64"><defs><style/></defs><path d="M760.459 138.244H67.2v248.103h693.258V138.244zm-49.661 198.441H116.862v-51.728h45.66v-49.661h-45.66v-47.391h593.936v148.78zM67.2 436.21v246.037h893.905V436.211H67.2zm844.243 196.376H116.862V485.873h794.581v146.713zM67.2 880.893h792.582v-148.78H67.2v148.78zm49.662-99.12H810.12v49.459H116.862v-49.459z"/><path d="M410.829 235.296h248.307v49.661H410.83v-49.661zm-99.323 0h49.66v49.661h-49.66v-49.661zm-99.322 0h49.66v49.661h-49.66v-49.661zm548.275 297.967h99.323v49.661h-99.323v-49.66zm-99.323 0h49.66v49.661h-49.66v-49.66zm-99.322 0h49.66v49.661h-49.66v-49.66zm-99.324 0h49.661v49.661h-49.66v-49.66z"/></svg>