<svg class="icon" viewBox="0 0 1024 1024" xmlns="http://www.w3.org/2000/svg" width="200" height="200"><path d="M952.17 522.317c0-122.041-43.134-226.185-129.402-311.407-85.222-86.261-189.364-129.388-311.41-129.388-120.984 0-225.128 43.129-311.397 129.388-13.676 12.635-26.302 27.358-36.821 42.08h-1.048v1.057-1.056c-61.027 77.854-91.53 167.279-91.53 269.326 0 97.836 28.408 185.162 85.222 259.853l1.048 1.047v1.048c12.616 16.847 27.35 32.63 43.13 49.457 86.27 85.21 190.414 128.339 311.397 129.388 122.046-1.047 226.189-44.178 311.41-129.388 15.782-15.78 30.503-32.61 43.143-48.389l1.044-1.068c0-1.048 1.048-2.097 1.048-2.097 56.816-75.739 84.166-162.015 84.166-259.851zm-123.082-224.08c46.282 65.216 70.48 139.92 70.48 224.08 0 79.961-21.042 152.552-64.172 215.675-206.195-57.863-421.863-57.863-647.004 0-43.128-63.123-65.228-135.714-65.228-215.675 0-83.101 23.149-156.746 68.383-220.927 206.205 83.106 418.708 82.057 637.541-3.153zm-43.14-50.505c3.152 3.162 5.261 5.259 7.367 8.424-194.63 71.536-382.947 72.592-567.054 3.153 3.163-4.202 7.366-7.367 10.519-11.577h1.05c75.76-75.74 167.278-113.608 273.526-113.608 107.325 0 198.846 37.868 274.591 113.608zM237.83 795.852c-5.262-4.21-9.461-8.424-12.616-12.635 198.84-47.341 390.302-47.341 574.41-1.047a13985.039 13985.039 0 0 0-13.676 13.682c-75.745 75.74-167.267 113.609-274.59 114.656-106.25-1.047-197.769-38.916-273.528-114.656z"/><path d="M519.785 86.782c-5.262-3.165-10.523-5.26-15.783-6.32h-3.162c-2.097 0-4.202 1.06-7.355 2.106-3.165 1.047-6.31 3.155-8.428 5.26l-1.044 1.05c-148.332 137.811-225.14 274.575-230.401 412.4H96.862c-7.365 0-13.673 3.154-17.886 8.413-5.26 4.214-8.415 10.522-8.415 17.886s3.153 13.676 8.415 18.936c4.213 5.26 10.52 7.366 17.887 7.366h157.805c9.463 132.558 86.268 265.11 228.294 397.661 1.05 0 1.05 0 1.05 1.05h1.044c4.212 4.21 10.52 6.33 16.84 7.374h2.106c1.048 0 2.097 0 4.214-1.044 4.201-1.07 8.404-3.165 12.615-6.33l1.047-1.05c148.346-133.599 230.403-265.103 244.09-395.554h159.9c7.364 0 13.682-2.107 18.943-7.367 4.202-5.26 7.359-11.579 7.359-18.935 0-7.367-3.157-13.684-7.36-17.883-5.26-5.263-11.576-8.418-18.942-8.418H768.062c-2.095-142.027-85.211-280.895-248.277-416.6zm2.093 246.17c4.215-5.26 7.378-11.578 7.378-18.934V165.686C657.598 284.553 719.67 405.538 715.46 528.639v1.047c-7.354 109.415-66.276 221.973-178.846 335.597V721.144a25.419 25.419 0 0 0-7.357-17.878c-5.26-5.26-11.578-8.422-18.943-8.422-7.36 0-13.675 3.163-18.937 8.422-5.26 4.213-7.364 10.52-7.364 17.878V878.95C366.19 759.035 307.27 639.1 306.21 520.215c1.06-116.772 57.864-233.546 170.444-350.328v144.131c0 7.356 2.095 13.676 7.358 18.935 5.258 4.2 11.564 7.365 18.94 7.365 7.361 0 13.668-3.165 18.926-7.365z"/><path d="M617.62 529.684c0-11.571 2.106-19.993 5.263-25.252 5.26-7.357 12.626-11.57 21.04-11.57 4.202 0 7.364 1.05 11.577 2.097 3.14 2.114 5.26 4.213 8.404 7.376 1.057 2.097 2.116 5.262 3.164 9.465l35.773-8.419c-4.21-13.682-11.577-24.205-21.038-30.511-9.475-7.357-22.1-10.52-38.94-10.52-21.038 0-36.819 6.307-48.387 17.884-11.572 11.579-17.878 28.407-17.878 49.449 0 16.828 3.144 29.455 10.519 39.974 6.308 10.522 13.665 18.936 23.136 22.1 8.424 4.201 21.042 6.309 34.726 6.309 11.57 0 21.041-2.108 29.448-4.211 7.374-4.213 13.682-9.473 18.943-15.783 4.21-7.357 8.415-14.732 10.519-25.253l-34.728-10.522c-2.095 8.427-5.258 14.733-8.403 18.946-4.21 4.213-10.52 6.312-17.897 6.312-8.403 0-14.721-2.099-18.922-8.417-4.213-5.257-6.318-14.722-6.318-29.454zm-114.666 17.878h22.091c15.78 0 28.397-4.202 35.772-11.57 8.406-7.355 12.616-17.88 12.616-30.51 0-13.668-4.21-23.139-11.565-30.503-7.368-6.32-17.889-9.463-32.612-9.463h-67.335v130.448h41.032v-48.402zm30.505-41.024c0 4.2-1.057 7.367-4.201 10.52-3.164 2.107-8.426 3.155-16.84 3.155h-9.462v-28.399h11.57c7.354 0 12.616 1.048 14.732 4.203 3.143 2.109 4.2 6.32 4.2 10.52zm-74.7-41.024h-41.023L388.28 559.14l-29.467-93.625h-42.081l49.457 130.448h44.178l48.391-130.448z"/></svg>