<svg class="icon" viewBox="0 0 1024 1024" xmlns="http://www.w3.org/2000/svg" width="200" height="200"><defs><style/></defs><path d="M514.133 851.2c-6.4 0-10.666-4.267-10.666-10.667V633.6c0-6.4 4.266-10.667 10.666-10.667S524.8 627.2 524.8 633.6v206.933c0 6.4-4.267 10.667-10.667 10.667z"/><path d="M631.467 748.8c-2.134 0-6.4-2.133-8.534-4.267l-108.8-115.2-108.8 117.334c-4.266 4.266-10.666 4.266-14.933 0-4.267-4.267-4.267-10.667 0-14.934L507.733 608c4.267-4.267 10.667-4.267 14.934 0L640 731.733c4.267 4.267 4.267 10.667 0 14.934-2.133 2.133-6.4 2.133-8.533 2.133zM514.133 398.933c-6.4 0-10.666-4.266-10.666-10.666v-204.8c0-6.4 4.266-10.667 10.666-10.667s10.667 4.267 10.667 10.667V390.4c0 4.267-4.267 8.533-10.667 8.533z"/><path d="M514.133 420.267c-2.133 0-6.4-2.134-8.533-4.267L388.267 292.267C384 288 384 281.6 388.267 277.333c4.266-4.266 10.666-4.266 14.933 0l108.8 115.2 108.8-115.2c4.267-4.266 10.667-4.266 14.933 0 4.267 4.267 4.267 10.667 0 14.934L518.4 416c2.133 2.133 0 4.267-4.267 4.267z"/><path d="M844.8 522.667H640c-6.4 0-10.667-4.267-10.667-10.667S633.6 501.333 640 501.333h206.933c6.4 0 10.667 4.267 10.667 10.667s-6.4 10.667-12.8 10.667z"/><path d="M742.4 640c-2.133 0-6.4-2.133-8.533-4.267-4.267-4.266-4.267-10.666 0-14.933l115.2-108.8-115.2-108.8c-4.267-4.267-4.267-10.667 0-14.933 4.266-4.267 10.666-4.267 14.933 0L872.533 505.6c2.134 2.133 4.267 4.267 4.267 8.533s-2.133 6.4-4.267 8.534L748.8 640c-2.133-2.133-4.267 0-6.4 0zm-352-117.333H183.467c-6.4 0-10.667-4.267-10.667-10.667s4.267-10.667 10.667-10.667H390.4c6.4 0 10.667 4.267 10.667 10.667s-4.267 10.667-10.667 10.667z"/><path d="M288 640c-2.133 0-4.267 0-6.4-2.133L157.867 520.533c-2.134-2.133-4.267-4.266-4.267-8.533s2.133-6.4 4.267-8.533L281.6 386.133c4.267-4.266 10.667-4.266 14.933 0 4.267 4.267 4.267 10.667 0 14.934L179.2 512l115.2 108.8c4.267 4.267 4.267 10.667 0 14.933 0 2.134-4.267 4.267-6.4 4.267z"/><path d="M514.133 981.333C256 981.333 44.8 770.133 44.8 512S256 42.667 514.133 42.667 983.467 253.867 983.467 512 774.4 981.333 514.133 981.333zm0-917.333c-247.466 0-448 200.533-448 448s200.534 448 448 448 448-200.533 448-448-200.533-448-448-448z"/></svg>