<svg class="icon" viewBox="0 0 1024 1024" xmlns="http://www.w3.org/2000/svg" width="200" height="200"><path d="M204.8 783.36v3.584h614.4c75.264 0 136.192-61.44 136.192-136.704s-61.44-136.192-136.704-136.192c9.728-159.744-112.128-297.472-271.872-307.2-147.456-9.216-277.504 93.696-303.104 238.592-94.208-2.56-172.544 71.68-175.104 165.888-2.56 82.944 55.296 155.648 136.192 172.032zm0 69.12C74.24 833.536-16.384 712.704 2.56 582.144c14.336-99.328 89.088-178.688 186.88-199.68C237.056 240.64 371.2 138.24 528.896 138.24c184.32 0 335.872 139.264 355.84 317.952 107.008 36.352 164.352 152.576 128 259.584-28.16 82.944-105.984 138.752-194.048 138.752H204.8v-2.048z"/></svg>