<svg class="icon" viewBox="0 0 1024 1024" xmlns="http://www.w3.org/2000/svg" width="200" height="200"><defs><style/></defs><path d="M512 625.067c-6.4 0-10.667-4.267-10.667-10.667V345.6c0-6.4 4.267-10.667 10.667-10.667s10.667 4.267 10.667 10.667v268.8c0 6.4-4.267 10.667-10.667 10.667z"/><path d="M644.267 490.667H379.733c-6.4 0-10.666-4.267-10.666-10.667s4.266-10.667 10.666-10.667h262.4c6.4 0 10.667 4.267 10.667 10.667s-4.267 10.667-8.533 10.667z"/><path d="M512 979.2c-4.267 0-121.6-2.133-292.267-174.933-113.066-117.334-113.066-236.8-113.066-294.4v-313.6c0-4.267 4.266-10.667 10.666-10.667 213.334 0 328.534-93.867 381.867-138.667l6.4-4.266c4.267-4.267 10.667-4.267 12.8 0l6.4 4.266C580.267 91.733 693.333 185.6 906.667 185.6c6.4 0 10.666 6.4 10.666 10.667v313.6c0 53.333 0 177.066-113.066 294.4C629.333 977.067 516.267 979.2 512 979.2zM128 206.933v302.934c0 55.466 0 168.533 106.667 279.466C398.933 957.867 509.867 957.867 512 957.867c0 0 108.8-2.134 277.333-168.534C896 678.4 896 561.067 896 509.867V206.933c-213.333-2.133-328.533-96-384-140.8-55.467 44.8-170.667 138.667-384 140.8z"/></svg>