<svg class="icon" viewBox="0 0 1024 1024" xmlns="http://www.w3.org/2000/svg" width="200" height="200"><defs><style/></defs><path d="M949.333 872.533H74.667c-17.067 0-32-14.933-32-32V183.467c0-17.067 14.933-32 32-32h874.666c17.067 0 32 14.933 32 32v659.2c0 17.066-14.933 29.866-32 29.866zM74.667 172.8c-6.4 0-10.667 4.267-10.667 10.667v659.2c0 6.4 4.267 10.666 10.667 10.666h874.666c6.4 0 10.667-4.266 10.667-10.666v-659.2c0-6.4-4.267-10.667-10.667-10.667H74.667z"/><path d="M970.667 341.333H53.333c-6.4 0-10.666-4.266-10.666-10.666S46.933 320 53.333 320h917.334c6.4 0 10.666 4.267 10.666 10.667s-4.266 10.666-10.666 10.666z"/><path d="M377.6 684.8c-2.133 0-4.267 0-4.267-2.133L211.2 601.6c-4.267-2.133-6.4-6.4-6.4-8.533s2.133-8.534 6.4-8.534l162.133-81.066c4.267-2.134 10.667 0 14.934 4.266 2.133 4.267 0 10.667-4.267 14.934l-142.933 70.4L384 663.467c4.267 2.133 6.4 8.533 4.267 14.933-4.267 4.267-6.4 6.4-10.667 6.4zm268.8 0c-4.267 0-8.533-2.133-8.533-6.4-2.134-4.267 0-10.667 4.266-14.933l142.934-70.4-142.934-70.4c-4.266-2.134-6.4-8.534-4.266-14.934 2.133-4.266 8.533-6.4 14.933-4.266l162.133 81.066c4.267 2.134 6.4 6.4 6.4 8.534s-2.133 8.533-6.4 8.533l-164.266 81.067c0 2.133-2.134 2.133-4.267 2.133zm-187.733 25.6c-2.134 0-4.267 0-4.267-2.133-4.267-2.134-6.4-8.534-4.267-14.934l108.8-215.466c2.134-4.267 8.534-6.4 14.934-4.267 4.266 2.133 6.4 8.533 4.266 14.933L469.333 704c-4.266 4.267-6.4 6.4-10.666 6.4z"/><path d="M138.667 256h-21.334c-6.4 0-10.666-4.267-10.666-10.667s4.266-10.666 10.666-10.666h21.334c6.4 0 10.666 4.266 10.666 10.666S145.067 256 138.667 256zM202.667 256h-21.334c-6.4 0-10.666-4.267-10.666-10.667s4.266-10.666 10.666-10.666h21.334c6.4 0 10.666 4.266 10.666 10.666S209.067 256 202.667 256z"/></svg>