<svg class="icon" viewBox="0 0 1024 1024" xmlns="http://www.w3.org/2000/svg" width="200" height="200"><defs><style/></defs><path d="M512 682.667c-238.933 0-426.667-66.134-426.667-149.334 0-6.4 4.267-10.666 10.667-10.666s10.667 4.266 10.667 10.666c0 61.867 162.133 128 405.333 128s405.333-66.133 405.333-128c0-6.4 4.267-10.666 10.667-10.666s10.667 4.266 10.667 10.666c0 83.2-187.734 149.334-426.667 149.334z"/><path d="M512 405.333C273.067 405.333 85.333 339.2 85.333 256S273.067 106.667 512 106.667 938.667 172.8 938.667 256 750.933 405.333 512 405.333zM512 128c-243.2 0-405.333 66.133-405.333 128S268.8 384 512 384s405.333-66.133 405.333-128S755.2 128 512 128z"/><path d="M96 821.333c-6.4 0-10.667-4.266-10.667-10.666V256c0-6.4 4.267-10.667 10.667-10.667S106.667 249.6 106.667 256v554.667c0 6.4-4.267 10.666-10.667 10.666zm832 0c-6.4 0-10.667-4.266-10.667-10.666V256c0-6.4 4.267-10.667 10.667-10.667S938.667 249.6 938.667 256v554.667c0 6.4-4.267 10.666-10.667 10.666z"/><path d="M512 960c-238.933 0-426.667-66.133-426.667-149.333C85.333 804.267 89.6 800 96 800s10.667 4.267 10.667 10.667c0 61.866 162.133 128 405.333 128s405.333-66.134 405.333-128c0-6.4 4.267-10.667 10.667-10.667s10.667 4.267 10.667 10.667C938.667 893.867 750.933 960 512 960z"/></svg>