<svg class="icon" viewBox="0 0 1024 1024" xmlns="http://www.w3.org/2000/svg" width="200" height="200"><defs><style/></defs><path d="M952 624a8 8 0 0 1 8 8v56a8 8 0 0 1-8 8H188.711l106.24 184.003a16 16 0 0 1 .186 15.668l-.186.332-30.023 51.998a8 8 0 0 1-13.72.226l-.136-.226L105.572 696l-13.857-24c-8.837-15.305-3.594-34.876 11.711-43.712A32 32 0 0 1 119.427 624H952zM772.792 75.773l.136.226L918.428 328l13.857 24c8.837 15.305 3.594 34.876-11.711 43.712A32 32 0 0 1 904.573 400H72a8 8 0 0 1-8-8v-56a8 8 0 0 1 8-8h763.289l-106.24-184.003a16 16 0 0 1-.186-15.668l.186-.332 30.023-51.998a8 8 0 0 1 13.72-.226z"/></svg>