<svg class="icon" viewBox="0 0 1024 1024" xmlns="http://www.w3.org/2000/svg" width="200" height="200"><path d="M256.003 341.33c0-141.183 114.806-255.998 255.988-255.998 141.183 0 255.997 114.815 255.997 255.997 0 141.174-114.814 255.997-255.997 255.997S255.994 482.503 255.994 341.33M979.87 970.35c-41.95-157.14-152.54-280.019-291.41-337.405 98.593-59.903 164.862-168.02 164.862-291.623C853.312 153.129 700.183 0 511.983 0s-341.33 153.129-341.33 341.33c0 123.595 66.261 231.71 164.905 291.614C196.68 690.373 86.09 813.209 44.114 970.348a42.65 42.65 0 0 0 30.208 52.172 42.709 42.709 0 0 0 52.257-30.207C175.28 810.009 333.741 682.659 512 682.659s336.756 127.358 385.446 309.67a42.58 42.58 0 0 0 52.224 30.208 42.65 42.65 0 0 0 30.207-52.18"/></svg>