<svg class="icon" viewBox="0 0 1024 1024" xmlns="http://www.w3.org/2000/svg" width="200" height="200"><path d="M942.08 962.56V1024H81.92v-61.44H20.48V716.8h983.04v245.76h-61.44zM163.84 798.72H102.4v61.44h61.44v-61.44zm102.4 0H204.8v61.44h61.44v-61.44zm102.4 0H307.2v61.44h61.44v-61.44zm429.978.102h-225.28v61.44h225.28v-61.44zm102.502-.102h-61.44v61.44h61.44v-61.44zm40.96-133.12H81.92v-61.44H20.48V358.4h983.04v245.76h-61.44v61.44zM163.84 440.32H102.4v61.44h61.44v-61.44zm102.4 0H204.8v61.44h61.44v-61.44zm102.4 0H307.2v61.44h61.44v-61.44zm429.978.082h-225.28v61.44h225.28v-61.44zm102.502-.082h-61.44v61.44h61.44v-61.44zm40.96-133.12H81.92v-61.44H20.48V0h983.04v245.76h-61.44v61.44zM163.84 81.92H102.4v61.44h61.44V81.92zm102.4 0H204.8v61.44h61.44V81.92zm102.4 0H307.2v61.44h61.44V81.92zm429.978.082h-225.28v61.44h225.28v-61.44zm102.502-.082h-61.44v61.44h61.44V81.92z"/></svg>