<svg class="icon" viewBox="0 0 1024 1024" xmlns="http://www.w3.org/2000/svg" width="200" height="200"><path d="M512 1024C229.776 1024 0 794.224 0 512S229.776 0 512 0s512 229.776 512 512-229.776 512-512 512zm0-999.024C243.512 24.976 24.976 243.512 24.976 512S243.512 999.024 512 999.024 999.024 780.488 999.024 512 780.488 24.976 512 24.976z"/><path d="M774.244 374.634H249.756V249.756h524.488v124.878zM274.732 349.66h474.536v-74.927H274.732v74.927z"/><path d="M312.195 299.707h24.976v24.976h-24.976zm62.44 0h24.975v24.976h-24.976zM774.244 524.488H249.756V399.61h524.488v124.878zm-499.512-24.976h474.536v-74.927H274.732v74.927z"/><path d="M312.195 449.561h24.976v24.976h-24.976zm62.44 0h24.975v24.976h-24.976zM774.244 774.244H249.756v-224.78h524.488v224.78zm-499.512-24.976h474.536V574.44H274.732v174.83z"/><path d="M312.195 611.902h24.976v99.903h-24.976zm62.44 0h24.975v99.903h-24.976z"/></svg>