<svg class="icon" viewBox="0 0 1024 1024" xmlns="http://www.w3.org/2000/svg" width="200" height="200"><path d="M108.33 292.992H867.5c36.949 0 65.706-27.392 65.706-62.592V105.259c0-35.2-28.757-62.592-65.706-62.592H108.373c-36.992 0-65.706 27.392-65.706 62.592V230.4c0 35.2 28.714 62.592 65.664 62.592zm0-187.733H867.5V230.4H108.373V105.259zm705.835 500.608c110.806-7.808 201.088 74.325 209.28 176 8.235 105.6-77.952 191.658-184.618 199.466H465.408c-90.283 0-164.181-70.4-164.181-156.458 0-74.283 53.333-136.875 131.328-152.534v-3.882c0-101.718 90.282-187.734 196.992-187.734 82.09 0 155.946 50.816 184.661 125.142zm20.523 312.874c73.856-3.882 127.232-62.549 127.232-136.874-4.139-66.475-65.707-121.259-139.52-117.334-8.235 0-16.427 3.926-24.661 3.926H785.45c-16.427 0-24.619-11.734-28.715-23.467-12.33-70.4-82.09-113.45-151.893-101.717-73.814 11.733-118.955 78.25-106.667 144.725 0 7.808 0 15.659-4.096 23.467-4.096 11.733-16.427 19.541-28.715 19.541-53.333 0-98.517 43.05-98.517 93.867 0 46.933 32.853 86.058 82.09 93.866h385.75zM161.664 762.325h-53.29v125.142h119.04c16.383 0 32.81 15.658 32.81 31.274 0 15.659-16.427 31.318-32.853 31.318H108.33c-36.907 0-65.664-27.392-65.664-62.592V762.325c0-35.2 28.714-62.592 65.664-62.592h119.04c16.384 0 32.81 15.659 32.81 31.275 0 15.659-16.426 31.317-32.853 31.317h-65.621zm-53.333-140.8c-36.95 0-65.664-27.392-65.664-62.592V433.792c0-35.2 28.714-62.592 65.664-62.592h759.168c36.949 0 65.706 27.392 65.706 62.592v35.2c0 15.616-16.426 31.275-32.853 31.275s-32.853-15.659-32.853-31.275v-35.2H108.373v125.141h229.803c16.427 0 32.853 15.659 32.853 31.275a31.573 31.573 0 0 1-32.853 31.317H108.331zm98.474-156.458h65.707c16.384 0 32.81 15.658 32.81 31.274 0 15.659-16.426 31.318-32.853 31.318h-65.664c-16.384 0-32.853-15.659-32.853-31.318 0-15.616 16.47-31.274 32.853-31.274z"/></svg>