<svg class="icon" viewBox="0 0 1024 1024" xmlns="http://www.w3.org/2000/svg" width="200" height="200"><path d="M830.4 542.4c0 14.4 12.8 28.8 28.8 28.8h113.6L830.4 428.8v113.6z"/><path d="M801.6 542.4V428.8H632c-32 0-56 25.6-56 56v396.8c0 32 25.6 56 56 56h283.2c32 0 56-25.6 56-56V600H857.6c-30.4 0-56-27.2-56-57.6zm12.8 312H644.8v-28.8h169.6v28.8zm84.8-84.8H644.8v-28.8h254.4v28.8zm0-84.8H644.8V656h254.4v28.8zm-368-92.8H70.4c-14.4 0-25.6 11.2-25.6 25.6v296c0 14.4 11.2 25.6 25.6 25.6h478.4c-9.6-11.2-16-25.6-16-43.2V592z"/><path d="M956.8 324.8h-888c-14.4 0-25.6 11.2-25.6 25.6v144c0 14.4 11.2 25.6 25.6 25.6h462.4v-72c0-35.2 44.8-64 80-64h224L968 516.8c8-3.2 14.4-12.8 14.4-22.4V352c-1.6-16-11.2-27.2-25.6-27.2zM212.8 480c-28.8 0-52.8-24-52.8-52.8 0-30.4 24-54.4 54.4-54.4s54.4 24 54.4 54.4c0 28.8-25.6 52.8-56 52.8zm744-419.2H70.4C56 60.8 44.8 72 44.8 86.4v144c0 14.4 11.2 25.6 25.6 25.6h886.4c14.4 0 25.6-11.2 25.6-25.6v-144c-1.6-14.4-11.2-25.6-25.6-25.6zm-744 152c-28.8 0-52.8-24-52.8-52.8 0-30.4 24-54.4 54.4-54.4s54.4 24 54.4 54.4c0 28.8-25.6 52.8-56 52.8z"/></svg>