<svg class="icon" viewBox="0 0 1024 1024" xmlns="http://www.w3.org/2000/svg" width="200" height="200"><path d="M511.92.16C292.53.16 102.384 139.114 29.243 343.882l65.814 21.949C153.576 190.306 321.774 66.006 511.888 66.006c219.39 0 394.914 160.903 431.485 365.639l-65.814-43.866-36.57 73.141 124.332 80.435c7.327 7.327 14.622 7.327 21.949 7.327s14.621 0 14.621-7.327c14.622-7.326 21.949-21.948 21.949-29.243C1016.513 234.203 789.829.192 511.92.192zm0 950.7c-219.39 0-394.914-160.903-431.485-365.64l65.814 43.866 36.57-65.814-131.627-80.435c-14.622-7.327-29.243-7.327-36.57 0S0 497.458 0 512.08C0 797.283 226.717 1024 511.92 1024c219.39 0 409.536-138.954 482.677-343.722l-65.814-21.949C862.969 833.854 694.77 950.86 511.952 950.86z"/><path d="M475.35 321.934h255.96v51.192H475.35v-51.192zM292.53 292.69h109.711v109.711h-109.71v-109.71zm182.82 212.063h255.96v51.192H475.35v-51.192zM292.53 475.51h109.711v109.71h-109.71V475.51zm182.82 212.095h255.96v51.192H475.35v-51.192zm-182.82-29.276h109.711V768.04h-109.71V658.33z"/></svg>