<svg class="icon" viewBox="0 0 1024 1024" xmlns="http://www.w3.org/2000/svg" width="200" height="200"><path d="M976.208 547.36a94.784 94.784 0 0 0-115.104-14.736l-64.736-64.72a24 24 0 0 0-33.936 33.936l64.736 64.72a94.4 94.4 0 0 0-13.088 48 95.696 95.696 0 0 0 2.352 20.8c-.496.24-1.008.384-1.504.672L577.12 773.328a94.736 94.736 0 0 0-139.744-5.488L209.072 636.032c-.48-.288-1.008-.432-1.504-.688a95.472 95.472 0 0 0 2.352-20.8 94.4 94.4 0 0 0-13.072-48l240.88-240.88a126.208 126.208 0 0 0 72 22.576 127.792 127.792 0 0 0 21.984-2.032 126.272 126.272 0 0 0 52.64-22.4l.128.192 93.104 93.088a24 24 0 0 0 33.936-33.936l-93.088-93.088c-.464-.464-1.072-.608-1.6-1.024a126.816 126.816 0 1 0-212.8 2.432L162.912 532.64a94.928 94.928 0 1 0 19.2 149.056c1.216-1.232 2.32-2.544 3.472-3.824L413.328 809.36a95.008 95.008 0 0 0 91.376 120.144 95.648 95.648 0 0 0 24.736-3.2 94.816 94.816 0 0 0 68.608-109.568l240.384-138.784c1.152 1.264 2.24 2.592 3.472 3.808a94.96 94.96 0 1 0 134.304-134.304zm-466.416-404.8a78.864 78.864 0 1 1-78.88 78.864 78.96 78.96 0 0 1 78.88-78.896zm-361.6 505.2a48 48 0 0 1-66.416 0 46.96 46.96 0 1 1 66.416 0zm397.36 210.224a46.96 46.96 0 0 1-64.144 17.2 46.976 46.976 0 1 1 64.144-17.2zm396.8-210.224a48 48 0 0 1-66.416 0 46.976 46.976 0 0 1 66.416-66.432 46.96 46.96 0 0 1 0 66.432z"/><path d="M483.824 345.552v99.536L352.16 555.872a24 24 0 0 0 2.752 38.736l128.912 80.432v67.056a94.784 94.784 0 0 1 48 1.456v-67.696l130.208-81.184a24 24 0 0 0 2.768-38.72l-132.976-112v-97.6a123.408 123.408 0 0 1-48-.672zM408.32 571.344l75.504-63.52v110.592zm123.504 47.888v-112.64l76.8 64.736zM742.704 469.392a24 24 0 0 0 0-48h-.16a24 24 0 0 0 .16 48z"/></svg>