<svg class="icon" viewBox="0 0 1024 1024" xmlns="http://www.w3.org/2000/svg" width="200" height="200"><path d="M916.946 798.515H783.785v-72.484a59.162 59.162 0 0 0 28.55-29.92h81.56v-46.08H812.38c-8.97-21.07-29.855-35.84-54.195-35.84s-45.225 14.77-54.195 35.84H571.284a59.08 59.08 0 0 0-34.109-32.262V553.6H744.96c86.246 0 156.16-65.761 156.16-146.883 0-75.607-60.744-137.84-138.824-145.955C726.697 174.428 623.826 112 502.4 112c-147.343 0-267.392 91.91-273.009 206.94l-.271-.005c-64.804 0-117.335 52.531-117.335 117.335 0 63.657 50.703 115.436 113.92 117.248v.087H496.21v64.481a59.003 59.003 0 0 0-33.285 31.95H327.9c-8.97-21.07-29.855-35.84-54.195-35.84s-45.225 14.77-54.195 35.84h-77.62v46.08h77.656A59.105 59.105 0 0 0 253.44 728.3v70.22H114.95a5.059 5.059 0 0 0-5.08 5.044v102.553c0 2.785 2.273 5.043 5.08 5.043H432.47a5.059 5.059 0 0 0 5.08-5.043V803.564a5.059 5.059 0 0 0-5.08-5.044H299.52v-72.524a59.095 59.095 0 0 0 28.38-29.88h135.025c8.97 21.068 29.855 35.84 54.195 35.84s45.225-14.772 54.195-35.84h132.71a59.126 59.126 0 0 0 33.68 32.107v70.297H599.424a5.059 5.059 0 0 0-5.079 5.044v102.553c0 2.785 2.273 5.043 5.079 5.043h317.522a5.059 5.059 0 0 0 5.079-5.043V803.564a5.064 5.064 0 0 0-5.08-5.049zm-549.366 30.72a25.6 25.6 0 1 1-.005 51.205 25.6 25.6 0 0 1 .005-51.205zM273.705 701.23a28.16 28.16 0 1 1 0-56.32 28.16 28.16 0 1 1 0 56.32zm243.415 0a28.16 28.16 0 1 1 0-56.32 28.16 28.16 0 1 1 0 56.32zm241.065 0a28.16 28.16 0 1 1 0-56.32 28.16 28.16 0 1 1 0 56.32zm93.875 179.205a25.6 25.6 0 1 1 .005-51.205 25.6 25.6 0 0 1-.005 51.205z"/></svg>