<svg class="icon" viewBox="0 0 1024 1024" xmlns="http://www.w3.org/2000/svg" width="200" height="200"><path d="M409.065 358.92a153.503 153.503 0 1 0-153.39 153.655 153.806 153.806 0 0 0 153.39-153.655z"/><path d="M255.713 512.272A256.129 256.129 0 0 0 0 768.249v51.294h511.425V768.25a256.28 256.28 0 0 0-255.712-255.977z"/><path d="M725.642 563.68a153.655 153.655 0 1 0 0-102.626h-60.524V205h60.524a153.655 153.655 0 1 0 0-102.626H562.719v358.338H460.396v102.323H562.72V921.64h162.923a153.503 153.503 0 1 0 0-102.323h-60.524V563.34h60.524z"/></svg>