<svg class="icon" viewBox="0 0 1024 1024" xmlns="http://www.w3.org/2000/svg" width="200" height="200"><path d="M827.5 253.2c0 20.7-16.5 37.3-37.3 37.3-20.7 0-37.3-16.5-37.3-37.3 0-20.7 16.5-37.3 37.3-37.3 20.8 0 37.3 16.5 37.3 37.3zM790.3 339c-20.7 0-37.3 17-37.3 37.3 0 20.7 16.5 37.3 37.3 37.3 20.7 0 37.3-16.5 37.3-37.3-.1-20.8-16.6-37.3-37.3-37.3zM786 645.1c-20.7 0-37.3 16.5-37.3 37.3 0 20.7 16.5 37.3 37.3 37.3 20.7 0 37.3-16.5 37.3-37.3 0-20.8-16.5-37.3-37.3-37.3zm0 118.8c-20.7 0-37.3 16.5-37.3 37.3 0 20.7 16.5 37.3 37.3 37.3 20.7 0 37.3-16.5 37.3-37.3 0-20.8-16.5-37.3-37.3-37.3zm142-123.5V837c0 48.1-39.1 87.2-87.2 87.2H185.2c-48.1 0-87.2-39.1-87.2-87.2V640.4c0-48.1 39.1-87.2 87.2-87.2h655.5c48.2-.1 87.3 39.1 87.3 87.2zm-61.3 0c0-14.3-11.6-25.9-25.9-25.9H185.2c-14.3 0-25.9 11.6-25.9 25.9V837c0 14.3 11.6 25.9 25.9 25.9h655.5c14.3 0 25.9-11.6 25.9-25.9V640.4zM928 215.5v196.6c0 48.1-39.1 87.2-87.2 87.2H185.2c-48.1 0-87.2-39.1-87.2-87.2V215.5c0-48.1 39.1-87.2 87.2-87.2h655.5c48.2-.1 87.3 39.1 87.3 87.2zm-61.3 0c0-14.3-11.6-25.9-25.9-25.9H185.2c-14.3 0-25.9 11.6-25.9 25.9v196.6c0 14.3 11.6 25.9 25.9 25.9h655.5c14.3 0 25.9-11.6 25.9-25.9V215.5z"/></svg>