<svg class="icon" viewBox="0 0 1024 1024" xmlns="http://www.w3.org/2000/svg" width="200" height="200"><path d="M878.308 409.475c-13.807 0-25-11.193-25-25V220.807c0-13.807 11.193-25 25-25s25 11.193 25 25v163.668c0 13.807-11.194 25-25 25zM522.382 974.894L141.454 754.966V391.193c0-13.807 11.193-25 25-25s25 11.193 25 25v334.906L522.382 917.16l330.926-191.061V598.97c0-13.807 11.193-25 25-25s25 11.193 25 25v155.996L522.382 974.894z"/><path d="M502.668 758.899c-3.781 0-7.618-.86-11.225-2.677L232.578 625.867c-12.332-6.21-17.295-21.241-11.085-33.573 6.21-12.331 21.241-17.295 33.573-11.085l258.866 130.355c12.332 6.21 17.295 21.241 11.085 33.573-4.394 8.725-13.204 13.762-22.349 13.762zm6.035-316.444c-8.929 0-17.566-4.794-22.069-13.219-6.509-12.176-1.916-27.324 10.261-33.833l363.04-194.078c12.173-6.508 27.324-1.917 33.833 10.261 6.51 12.176 1.916 27.324-10.261 33.833L520.468 439.497a24.895 24.895 0 0 1-11.765 2.958z"/><path d="M508.681 761.11c-13.807 0-25-11.192-25-25V425.441c0-13.807 11.193-25 25-25s25 11.193 25 25V736.11c.001 13.808-11.193 25-25 25zm366.465-158.123c-36.208 0-65.665-29.458-65.665-65.666s29.457-65.666 65.665-65.666 65.665 29.458 65.665 65.666-29.457 65.666-65.665 65.666zm0-91.331c-14.151 0-25.665 11.513-25.665 25.666s11.514 25.666 25.665 25.666 25.665-11.514 25.665-25.666-11.513-25.666-25.665-25.666zM689.938 343.127c-13.807 0-25-11.193-25-25V158.765c0-13.807 11.193-25 25-25s25 11.193 25 25v159.362c0 13.808-11.194 25-25 25z"/><path d="M320.333 379.416c-8.928 0-17.565-4.794-22.069-13.219-6.509-12.176-1.916-27.324 10.261-33.833l363.04-194.078c12.173-6.508 27.324-1.917 33.833 10.261 6.51 12.176 1.916 27.324-10.261 33.833l-363.04 194.078a24.888 24.888 0 0 1-11.764 2.958z"/><path d="M320.311 665.069c-13.807 0-25-11.193-25-25V357.403c0-13.807 11.193-25 25-25s25 11.193 25 25v282.666c0 13.807-11.193 25-25 25zm215.505-417.088c-13.807 0-25-11.193-25-25V60.977c0-13.807 11.193-25 25-25s25 11.193 25 25v162.005c0 13.807-11.193 24.999-25 24.999z"/><path d="M189.042 259.793c-9.146 0-17.957-5.038-22.35-13.765-6.208-12.333-1.243-27.363 11.09-33.571L517.989 41.211c12.331-6.208 27.363-1.243 33.571 11.09 6.207 12.333 1.242 27.363-11.091 33.571L200.263 257.118a24.894 24.894 0 0 1-11.221 2.675z"/></svg>