<svg class="icon" viewBox="0 0 1024 1024" xmlns="http://www.w3.org/2000/svg" width="200" height="200"><path d="M416.502 831.55H288.318a223.293 223.293 0 0 1-158.597-65.536 222.044 222.044 0 0 1-65.659-158.27 222.003 222.003 0 0 1 65.66-158.207A223.293 223.293 0 0 1 288.317 384a31.99 31.99 0 0 0 32.072-31.99v-.41c0-76.8 30.003-149.094 84.48-203.366A287.027 287.027 0 0 1 608.707 63.94c46.285 0 90.501 10.567 131.318 31.477a289.587 289.587 0 0 1 99.84 84.234 32.03 32.03 0 1 0 51.404-38.277A355.532 355.532 0 0 0 769.352 38.462 355.532 355.532 0 0 0 608.707.001a350.965 350.965 0 0 0-249.16 102.973A350.72 350.72 0 0 0 257.599 321.66a287.109 287.109 0 0 0-173.117 82.636A285.634 285.634 0 0 0 0 607.744c0 76.8 30.024 149.115 84.48 203.387a286.515 286.515 0 0 0 203.837 84.296h128.123a31.99 31.99 0 1 0 .061-63.877z"/><path d="M927.99 640h-320A96.113 96.113 0 0 1 512 544.01v-128A96.113 96.113 0 0 1 607.99 320h320a96.113 96.113 0 0 1 96.01 96.01v128A96.113 96.113 0 0 1 927.99 640zm-320-256c-17.654 0-31.99 14.337-31.99 32.01v128c0 17.593 14.398 31.99 31.99 31.99h320c17.613 0 32.01-14.397 32.01-31.99v-128c0-17.673-14.336-32.01-32.01-32.01h-320z"/><path d="M640 448h64v64h-64v-64zm128 0h128v64H768v-64zm159.99 576h-320A96.113 96.113 0 0 1 512 928.01v-128A96.113 96.113 0 0 1 607.99 704h320a96.113 96.113 0 0 1 96.01 96.01v128a96.113 96.113 0 0 1-96.01 95.99zm-320-256c-17.592 0-31.99 14.398-31.99 32.01v128c0 17.593 14.398 31.99 31.99 31.99h320c17.613 0 32.01-14.397 32.01-31.99v-128c0-17.612-14.397-32.01-32.01-32.01h-320z"/><path d="M640 832h64v64h-64v-64zm128 0h128v64H768v-64z"/></svg>