<svg class="icon" viewBox="0 0 1024 1024" xmlns="http://www.w3.org/2000/svg" width="200" height="200"><path d="M807.1 114.7h-602c-18.2 0-32.9 18.2-32.9 40.7 0 22.5 14.7 40.7 32.9 40.7h607.7c18.2 0 32.9-18.2 32.9-40.7v-1.1c0-21.9-14.4-39.6-32.1-39.6h-6.5zm0 141.6h-602c-18.2 0-32.9 18.2-32.9 40.7 0 22.5 14.7 40.7 32.9 40.7h607.7c18.2 0 32.9-18.2 32.9-40.7v-1.1c0-21.9-14.4-39.6-32.1-39.6h-6.5zm-360 327.8h142.4c10.9 0 21.6-4.4 30.3-12.5L727.7 471c8.7-8.1 19.4-12.5 30.3-12.5h65.5c12.4 0 22.5-12.4 22.5-27.7 0-15.3-10.1-27.7-22.5-27.7H194.7c-12.4 0-22.5 12.4-22.5 27.7 0 15.3 10.1 27.7 22.5 27.7h82.8c11.3 0 22.3 4.7 31.2 13.4l109.1 106.5c3.8 3.7 8.6 5.8 13.4 5.8h15.9zm0 0"/><path d="M742.5 536L621.2 649.2c-8.7 8.1-19.4 12.5-30.3 12.5H442.6c-11.3 0-22.3-4.7-31.2-13.4L299.8 536.6c-1.4-.5-9.5-.6-20.8-.6H113.2C85.5 536 63 563.8 63 598v249.3c0 34.2 22.5 62 50.2 62h797.7c27.7 0 50.2-27.8 50.2-62V598c0-34.3-22.5-62-50.2-62H742.5zm0 0"/></svg>