<svg class="icon" viewBox="0 0 1024 1024" xmlns="http://www.w3.org/2000/svg" width="200" height="200"><defs><style/></defs><path d="M394.667 721.067h-53.334c-6.4 0-10.666-4.267-10.666-10.667V516.267c0-6.4 4.266-10.667 10.666-10.667h57.6c34.134 0 59.734 10.667 76.8 29.867 14.934 17.066 23.467 42.666 23.467 78.933 0 34.133-8.533 59.733-25.6 78.933-19.2 17.067-44.8 27.734-78.933 27.734zM352 699.733h42.667c27.733 0 46.933-8.533 61.866-23.466 12.8-14.934 19.2-36.267 19.2-64 0-29.867-6.4-51.2-17.066-64-12.8-14.934-32-21.334-59.734-21.334H352v172.8zM637.867 723.2c-29.867 0-55.467-10.667-72.534-32-17.066-19.2-23.466-46.933-23.466-78.933s8.533-57.6 23.466-78.934C582.4 512 608 499.2 637.867 499.2c21.333 0 38.4 6.4 53.333 17.067 17.067 10.666 25.6 27.733 29.867 49.066 0 6.4-2.134 10.667-8.534 12.8-6.4 0-10.666-2.133-12.8-8.533-2.133-14.933-8.533-25.6-21.333-34.133-12.8-8.534-25.6-12.8-42.667-12.8-23.466 0-42.666 8.533-57.6 25.6-12.8 17.066-19.2 38.4-19.2 66.133s6.4 49.067 19.2 64c12.8 17.067 32 25.6 55.467 25.6 17.067 0 29.867-4.267 42.667-12.8 12.8-10.667 21.333-23.467 25.6-42.667 2.133-6.4 6.4-8.533 12.8-8.533 6.4 2.133 8.533 6.4 8.533 12.8-4.267 23.467-17.067 42.667-32 55.467-12.8 10.666-32 14.933-53.333 14.933z"/><path d="M838.4 846.933H200.533c-98.133 0-179.2-81.066-179.2-181.333 0-78.933 49.067-147.2 121.6-172.8-2.133-10.667-4.266-21.333-4.266-32 0-83.2 66.133-151.467 147.2-151.467 36.266 0 68.266 12.8 96 36.267 36.266-96 128-160 230.4-160 136.533 0 247.466 113.067 247.466 251.733 0 23.467-4.266 49.067-10.666 74.667 85.333 6.4 153.6 78.933 153.6 166.4 0 91.733-74.667 168.533-164.267 168.533zM288 330.667c-70.4 0-125.867 57.6-125.867 130.133 0 10.667 2.134 23.467 6.4 36.267v8.533c-2.133 2.133-4.266 4.267-6.4 4.267-72.533 19.2-119.466 83.2-119.466 153.6 0 89.6 70.4 160 157.866 160H838.4c78.933 0 142.933-66.134 142.933-147.2 0-81.067-64-147.2-142.933-147.2h-4.267c-4.266 0-6.4-2.134-8.533-4.267-2.133-2.133-2.133-6.4-2.133-10.667 10.666-27.733 14.933-55.466 14.933-81.066 0-128-102.4-230.4-226.133-230.4-98.134 0-185.6 64-215.467 162.133-2.133 4.267-4.267 6.4-8.533 6.4s-8.534 0-10.667-2.133c-21.333-23.467-55.467-38.4-89.6-38.4z"/></svg>