<svg class="icon" viewBox="0 0 1024 1024" xmlns="http://www.w3.org/2000/svg" width="200" height="200"><defs><style/></defs><path d="M678.4 537.6c-2.133 0-4.267 0-6.4-2.133L505.6 424.533c-2.133-2.133-4.267-4.266-4.267-8.533V249.6c0-6.4 4.267-10.667 10.667-10.667s10.667 4.267 10.667 10.667v160L684.8 518.4c4.267 4.267 6.4 10.667 2.133 14.933-2.133 2.134-4.266 4.267-8.533 4.267z"/><path d="M906.667 938.667H117.333c-17.066 0-32-14.934-32-32V117.333c0-17.066 14.934-32 32-32h789.334c17.066 0 32 14.934 32 32v789.334c0 17.066-14.934 32-32 32zm-789.334-832c-6.4 0-10.666 4.266-10.666 10.666v789.334c0 6.4 4.266 10.666 10.666 10.666h789.334c6.4 0 10.666-4.266 10.666-10.666V117.333c0-6.4-4.266-10.666-10.666-10.666H117.333z"/><path d="M928 704H96c-6.4 0-10.667-6.4-10.667-10.667S89.6 682.667 96 682.667h832c6.4 0 10.667 4.266 10.667 10.666S934.4 704 928 704z"/></svg>