<svg class="icon" viewBox="0 0 1024 1024" xmlns="http://www.w3.org/2000/svg" width="200" height="200"><defs><style/></defs><path d="M842.667 469.333H181.333c-6.4 0-10.666-4.266-10.666-10.666V245.333c0-6.4 4.266-10.666 10.666-10.666h661.334c6.4 0 10.666 4.266 10.666 10.666v213.334c0 6.4-4.266 10.666-10.666 10.666zM192 448h640V256H192v192z"/><path d="M181.333 362.667h-128c-6.4 0-10.666-4.267-10.666-10.667s4.266-10.667 10.666-10.667h128c6.4 0 10.667 4.267 10.667 10.667s-4.267 10.667-10.667 10.667zm789.334 0h-128c-6.4 0-10.667-4.267-10.667-10.667s4.267-10.667 10.667-10.667h128c6.4 0 10.666 4.267 10.666 10.667s-4.266 10.667-10.666 10.667zm-128 426.666H181.333c-6.4 0-10.666-4.266-10.666-10.666V565.333c0-6.4 4.266-10.666 10.666-10.666h661.334c6.4 0 10.666 4.266 10.666 10.666v213.334c0 6.4-4.266 10.666-10.666 10.666zM192 768h640V576H192v192z"/><path d="M181.333 682.667h-128c-6.4 0-10.666-4.267-10.666-10.667s4.266-10.667 10.666-10.667h128c6.4 0 10.667 4.267 10.667 10.667s-4.267 10.667-10.667 10.667zm789.334 0h-128c-6.4 0-10.667-4.267-10.667-10.667s4.267-10.667 10.667-10.667h128c6.4 0 10.666 4.267 10.666 10.667s-4.266 10.667-10.666 10.667z"/><path d="M245.333 405.333c-6.4 0-10.666-4.266-10.666-10.666v-85.334c0-6.4 4.266-10.666 10.666-10.666S256 302.933 256 309.333v85.334c0 6.4-4.267 10.666-10.667 10.666zm512-21.333h-42.666c-6.4 0-10.667-4.267-10.667-10.667v-42.666c0-6.4 4.267-10.667 10.667-10.667h42.666c6.4 0 10.667 4.267 10.667 10.667v42.666c0 6.4-4.267 10.667-10.667 10.667zm-32-21.333h21.334v-21.334h-21.334v21.334zm-480 362.666c-6.4 0-10.666-4.266-10.666-10.666v-85.334c0-6.4 4.266-10.666 10.666-10.666S256 622.933 256 629.333v85.334c0 6.4-4.267 10.666-10.667 10.666zm512-21.333h-42.666c-6.4 0-10.667-4.267-10.667-10.667v-42.666c0-6.4 4.267-10.667 10.667-10.667h42.666c6.4 0 10.667 4.267 10.667 10.667v42.666c0 6.4-4.267 10.667-10.667 10.667zm-32-21.333h21.334v-21.334h-21.334v21.334z"/><path d="M522.667 256c-6.4 0-10.667-4.267-10.667-10.667V138.667c0-6.4 4.267-10.667 10.667-10.667s10.666 4.267 10.666 10.667v106.666c0 6.4-4.266 10.667-10.666 10.667zM522.667 896c-6.4 0-10.667-4.267-10.667-10.667V778.667c0-6.4 4.267-10.667 10.667-10.667s10.666 4.267 10.666 10.667v106.666c0 6.4-4.266 10.667-10.666 10.667zM522.667 576c-6.4 0-10.667-4.267-10.667-10.667V458.667c0-6.4 4.267-10.667 10.667-10.667s10.666 4.267 10.666 10.667v106.666c0 6.4-4.266 10.667-10.666 10.667z"/></svg>